<svg width="70" height="70" viewBox="0 0 70 70" fill="none" xmlns="http://www.w3.org/2000/svg">
<g clip-path="url(#clip0_1_6125)">
<path fill-rule="evenodd" clip-rule="evenodd" d="M51.8187 24.3164C52.5973 26.3297 53.0225 28.5169 53.0225 30.8037C53.0225 33.0082 52.6265 35.1198 51.9037 37.072H18.0589C17.3348 35.1198 16.9375 33.0082 16.9375 30.8037C16.9375 28.5169 17.364 26.3297 18.1426 24.3164H51.8187ZM20.6498 38.7519C20.7853 38.7253 20.9221 38.7054 21.0563 38.6988C21.3765 38.6842 21.6768 38.7439 21.9372 38.9444C22.2933 39.2193 22.5989 39.3256 22.8979 39.3136C23.2154 39.299 23.5582 39.1556 23.9541 38.9352C24.1534 38.8249 24.4218 38.7625 24.7035 38.7572C24.8204 38.7545 24.94 38.7625 25.0582 38.7798V39.5089C24.948 39.4823 24.8297 39.4717 24.7181 39.473C24.5507 39.477 24.4006 39.5089 24.2996 39.5646C23.8133 39.8329 23.3802 40.0095 22.9284 40.0294C22.4594 40.0494 22.0023 39.9006 21.5001 39.5115C21.3938 39.4305 21.2516 39.4079 21.0896 39.4146H21.0882C20.954 39.4212 20.8039 39.4491 20.6498 39.4863V38.7519ZM45.8876 45.1688C45.303 45.6124 44.6905 46.0214 44.0527 46.3933C43.9664 46.4092 43.8787 46.4185 43.7896 46.4225C43.3206 46.4424 42.8636 46.2937 42.3613 45.9059C42.255 45.8235 42.1129 45.801 41.9508 45.8076H41.9495C41.8153 45.8143 41.6651 45.8421 41.5097 45.8793V45.1449C41.6465 45.1184 41.7834 45.0985 41.9176 45.0918C42.2378 45.0772 42.5394 45.137 42.7998 45.3375C43.1545 45.6124 43.4601 45.7186 43.7591 45.7067C44.0766 45.6921 44.4194 45.5486 44.8167 45.3282C45.016 45.218 45.2844 45.1556 45.5647 45.1502C45.671 45.1489 45.7813 45.1542 45.8876 45.1688ZM23.0002 44.287C22.5803 43.9139 22.1804 43.5221 21.7977 43.1131C21.8442 43.1396 21.8921 43.1715 21.9372 43.2074C22.2933 43.4823 22.5989 43.5885 22.8979 43.5752C23.2154 43.5619 23.5582 43.4172 23.9541 43.1981C24.1534 43.0865 24.4218 43.0254 24.7035 43.0188C24.8204 43.0175 24.94 43.0241 25.0582 43.0414V43.7704C24.948 43.7439 24.8297 43.7333 24.7181 43.7359C24.5507 43.7386 24.4006 43.7704 24.2996 43.8262C23.8412 44.0812 23.4253 44.2525 23.0002 44.287ZM20.6498 40.8833C20.7853 40.8555 20.9221 40.8369 21.0563 40.8302C21.3765 40.8143 21.6768 40.8741 21.9372 41.0759C22.2933 41.3508 22.5989 41.457 22.8979 41.4438C23.2154 41.4305 23.5582 41.2857 23.9541 41.0666C24.1534 40.9564 24.4218 40.894 24.7035 40.8887C24.8204 40.886 24.94 40.8926 25.0582 40.9099V41.639C24.948 41.6138 24.8297 41.6018 24.7181 41.6045C24.5507 41.6084 24.4006 41.639 24.2996 41.6961C23.8133 41.9643 23.3802 42.141 22.9284 42.1596C22.4594 42.1808 22.0023 42.0321 21.5001 41.643C21.3938 41.562 21.2516 41.5381 21.0896 41.546H21.0882C20.954 41.5527 20.8039 41.5806 20.6498 41.6164V40.8833ZM25.9551 38.7519C26.0919 38.7253 26.2275 38.7054 26.3617 38.6988C26.6832 38.6842 26.9848 38.7439 27.2439 38.9444C27.6 39.2193 27.9056 39.3256 28.2045 39.3136C28.5221 39.299 28.8622 39.1556 29.2595 38.9352C29.4601 38.8249 29.7285 38.7625 30.0101 38.7572C30.1257 38.7545 30.2453 38.7625 30.3649 38.7798V39.5089C30.252 39.4823 30.1364 39.4717 30.0234 39.473C29.8574 39.477 29.7085 39.5089 29.6049 39.5646C29.12 39.8329 28.6868 40.0095 28.2351 40.0294C27.7647 40.0494 27.3077 39.9006 26.8054 39.5115C26.7005 39.4305 26.557 39.4079 26.3962 39.4146H26.3949C26.262 39.4212 26.1105 39.4491 25.9551 39.4863V38.7519ZM25.9551 40.8833C26.0919 40.8555 26.2275 40.8369 26.3617 40.8302C26.6832 40.8143 26.9848 40.8741 27.2439 41.0759C27.6 41.3508 27.9056 41.457 28.2045 41.4438C28.5221 41.4305 28.8622 41.2857 29.2595 41.0666C29.4601 40.9564 29.7285 40.894 30.0101 40.8887C30.1257 40.886 30.2453 40.8926 30.3649 40.9099V41.639C30.252 41.6138 30.1364 41.6018 30.0234 41.6045C29.8574 41.6084 29.7085 41.639 29.6049 41.6961C29.12 41.9643 28.6868 42.141 28.2351 42.1596C27.7647 42.1808 27.3077 42.0321 26.8054 41.643C26.7005 41.562 26.557 41.5381 26.3962 41.546H26.3949C26.262 41.5527 26.1105 41.5806 25.9551 41.6164V40.8833ZM25.9551 43.0135C26.0919 42.9869 26.2275 42.967 26.3617 42.9617V42.9604C26.6832 42.9457 26.9848 43.0055 27.2439 43.2074C27.6 43.4823 27.9056 43.5885 28.2045 43.5752C28.5221 43.5619 28.8622 43.4172 29.2595 43.1981C29.4601 43.0865 29.7285 43.0254 30.0101 43.0188C30.1257 43.0175 30.2453 43.0241 30.3649 43.0414V43.7704C30.252 43.7439 30.1364 43.7333 30.0234 43.7359C29.8574 43.7386 29.7085 43.7704 29.6049 43.8262C29.12 44.0945 28.6868 44.2724 28.2351 44.291C27.7647 44.3109 27.3077 44.1622 26.8054 43.7744C26.7005 43.6934 26.557 43.6695 26.3962 43.6775H26.3949C26.262 43.6828 26.1105 43.7107 25.9551 43.7479V43.0135ZM25.9551 45.1449C26.0919 45.1184 26.2275 45.0985 26.3617 45.0918C26.6832 45.0772 26.9848 45.137 27.2439 45.3375C27.6 45.6124 27.9056 45.7186 28.2045 45.7067C28.5221 45.6921 28.8622 45.5486 29.2595 45.3282C29.4601 45.218 29.7285 45.1556 30.0101 45.1502C30.1257 45.1476 30.2453 45.1556 30.3649 45.1728V45.9019C30.252 45.8753 30.1364 45.8647 30.0234 45.866C29.8574 45.87 29.7085 45.9019 29.6049 45.9577C29.12 46.2259 28.6868 46.4026 28.2351 46.4225C27.7647 46.4424 27.3077 46.2937 26.8054 45.9059C26.7005 45.8235 26.557 45.801 26.3962 45.8076H26.3949C26.262 45.8143 26.1105 45.8421 25.9551 45.8793V45.1449ZM31.1395 38.7519C31.2764 38.7253 31.4119 38.7054 31.5474 38.6988C31.8676 38.6842 32.1692 38.7439 32.431 38.9444C32.7844 39.2193 33.09 39.3256 33.3889 39.3136C33.7065 39.299 34.0479 39.1556 34.4452 38.9352C34.6445 38.8249 34.9129 38.7625 35.1946 38.7572C35.3115 38.7545 35.4311 38.7625 35.5493 38.7798V39.5089C35.4377 39.4823 35.3221 39.4717 35.2092 39.473C35.0418 39.477 34.8916 39.5089 34.7907 39.5646C34.3057 39.8329 33.8726 40.0095 33.4195 40.0294C32.9505 40.0494 32.4934 39.9006 31.9912 39.5115C31.8849 39.4305 31.7427 39.4079 31.5806 39.4146C31.4451 39.4212 31.2963 39.4491 31.1395 39.4863V38.7519ZM31.1395 40.8833C31.2764 40.8555 31.4119 40.8369 31.5474 40.8302C31.8676 40.8143 32.1692 40.8741 32.431 41.0759C32.7844 41.3508 33.09 41.457 33.3889 41.4438C33.7065 41.4305 34.0479 41.2857 34.4452 41.0666C34.6445 40.9564 34.9129 40.894 35.1946 40.8887C35.3115 40.886 35.4311 40.8926 35.5493 40.9099V41.639C35.4377 41.6138 35.3221 41.6018 35.2092 41.6045C35.0418 41.6084 34.8916 41.639 34.7907 41.6961C34.3057 41.9643 33.8726 42.141 33.4195 42.1596C32.9505 42.1808 32.4934 42.0321 31.9912 41.643C31.8849 41.562 31.7427 41.5381 31.5806 41.546C31.4451 41.5527 31.2963 41.5806 31.1395 41.6164V40.8833ZM31.1395 43.0135C31.2764 42.9869 31.4119 42.967 31.5474 42.9617V42.9604C31.8676 42.9457 32.1692 43.0055 32.431 43.2074C32.7844 43.4823 33.09 43.5885 33.3889 43.5752C33.7065 43.5619 34.0479 43.4172 34.4452 43.1981C34.6445 43.0865 34.9129 43.0254 35.1946 43.0188C35.3115 43.0175 35.4311 43.0241 35.5493 43.0414V43.7704C35.4377 43.7439 35.3221 43.7333 35.2092 43.7359C35.0418 43.7386 34.8916 43.7704 34.7907 43.8262C34.3057 44.0945 33.8726 44.2724 33.4195 44.291C32.9505 44.3109 32.4934 44.1622 31.9912 43.7744C31.8849 43.6934 31.7427 43.6695 31.5806 43.6775C31.4451 43.6828 31.2963 43.7107 31.1395 43.7479V43.0135ZM31.1395 45.1449C31.2764 45.1184 31.4119 45.0985 31.5474 45.0918C31.8676 45.0772 32.1692 45.137 32.431 45.3375C32.7844 45.6124 33.09 45.7186 33.3889 45.7067C33.7065 45.6921 34.0479 45.5486 34.4452 45.3282C34.6445 45.218 34.9129 45.1556 35.1946 45.1502C35.3115 45.1476 35.4311 45.1556 35.5493 45.1728V45.9019C35.4377 45.8753 35.3221 45.8647 35.2092 45.866C35.0418 45.87 34.8916 45.9019 34.7907 45.9577C34.3057 46.2259 33.8726 46.4026 33.4195 46.4225C32.9505 46.4424 32.4934 46.2937 31.9912 45.9059C31.8849 45.8235 31.7427 45.801 31.5806 45.8076C31.4451 45.8143 31.2963 45.8421 31.1395 45.8793V45.1449ZM31.1395 46.866C31.2764 46.8395 31.4119 46.8196 31.5474 46.8129C31.8676 46.7983 32.1692 46.8581 32.431 47.0599C32.7844 47.3348 33.09 47.4411 33.3889 47.4278C33.7065 47.4145 34.0479 47.2698 34.4452 47.0493C34.6445 46.9391 34.9129 46.8767 35.1946 46.8713C35.3115 46.87 35.4311 46.8767 35.5493 46.8939V47.623C35.4377 47.5964 35.3221 47.5858 35.2092 47.5885C35.0418 47.5911 34.8916 47.623 34.7907 47.6788C34.3057 47.947 33.8726 48.1237 33.4195 48.1436C32.9505 48.1635 32.4934 48.0148 31.9912 47.627C31.8849 47.5446 31.7427 47.5221 31.5806 47.53C31.4451 47.5354 31.2963 47.5632 31.1395 47.6004V46.866ZM36.3253 38.7519C36.4608 38.7253 36.5976 38.7054 36.7318 38.6988C37.0534 38.6842 37.3536 38.7439 37.614 38.9444C37.9715 39.2193 38.2757 39.3256 38.5747 39.3136C38.8922 39.299 39.2337 39.1556 39.6296 38.9352C39.8289 38.8249 40.0986 38.7625 40.3816 38.7572C40.4959 38.7545 40.6155 38.7625 40.7351 38.7798V39.5089C40.6221 39.4823 40.5079 39.4717 40.3949 39.473C40.2275 39.477 40.076 39.5089 39.9751 39.5646C39.4901 39.8329 39.0556 40.0095 38.6052 40.0294C38.1349 40.0494 37.6778 39.9006 37.1756 39.5115C37.0706 39.4305 36.9271 39.4079 36.7677 39.4146H36.7664C36.6308 39.4212 36.4807 39.4491 36.3253 39.4863V38.7519ZM36.3253 40.8833C36.4608 40.8555 36.5976 40.8369 36.7318 40.8302C37.0534 40.8143 37.3536 40.8741 37.614 41.0759C37.9715 41.3508 38.2757 41.457 38.5747 41.4438C38.8922 41.4305 39.2337 41.2857 39.6296 41.0666C39.8289 40.9564 40.0986 40.894 40.3816 40.8887C40.4959 40.886 40.6155 40.8926 40.7351 40.9099V41.639C40.6221 41.6138 40.5079 41.6018 40.3949 41.6045C40.2275 41.6084 40.076 41.639 39.9751 41.6961C39.4901 41.9643 39.0556 42.141 38.6052 42.1596C38.1349 42.1808 37.6778 42.0321 37.1756 41.643C37.0706 41.562 36.9271 41.5381 36.7677 41.546H36.7664C36.6308 41.5527 36.4807 41.5806 36.3253 41.6164V40.8833ZM36.3253 43.0135C36.4608 42.9869 36.5976 42.967 36.7318 42.9617V42.9604C37.0534 42.9457 37.3536 43.0055 37.614 43.2074C37.9715 43.4823 38.2757 43.5885 38.5747 43.5752C38.8922 43.5619 39.2337 43.4172 39.6296 43.1981C39.8289 43.0865 40.0986 43.0254 40.3816 43.0188C40.4959 43.0175 40.6155 43.0241 40.7351 43.0414V43.7704C40.6221 43.7439 40.5079 43.7333 40.3949 43.7359C40.2275 43.7386 40.076 43.7704 39.9751 43.8262C39.4901 44.0945 39.0556 44.2724 38.6052 44.291C38.1349 44.3109 37.6778 44.1622 37.1756 43.7744C37.0706 43.6934 36.9271 43.6695 36.7677 43.6775H36.7664C36.6308 43.6828 36.4807 43.7107 36.3253 43.7479V43.0135ZM36.3253 45.1449C36.4608 45.1184 36.5976 45.0985 36.7318 45.0918C37.0534 45.0772 37.3536 45.137 37.614 45.3375C37.9715 45.6124 38.2757 45.7186 38.5747 45.7067C38.8922 45.6921 39.2337 45.5486 39.6296 45.3282C39.8289 45.218 40.0986 45.1556 40.3816 45.1502C40.4959 45.1476 40.6155 45.1556 40.7351 45.1728V45.9019C40.6221 45.8753 40.5079 45.8647 40.3949 45.866C40.2275 45.87 40.076 45.9019 39.9751 45.9577C39.4901 46.2259 39.0556 46.4026 38.6052 46.4225C38.1349 46.4424 37.6778 46.2937 37.1756 45.9059C37.0706 45.8235 36.9271 45.801 36.7677 45.8076H36.7664C36.6308 45.8143 36.4807 45.8421 36.3253 45.8793V45.1449ZM36.3253 46.866C36.4608 46.8395 36.5976 46.8196 36.7318 46.8129C37.0534 46.7983 37.3536 46.8581 37.614 47.0599C37.9715 47.3348 38.2757 47.4411 38.5747 47.4278C38.8922 47.4145 39.2337 47.2698 39.6296 47.0493C39.8289 46.9391 40.0986 46.8767 40.3816 46.8713C40.4959 46.87 40.6155 46.8767 40.7351 46.8939V47.623C40.6221 47.5964 40.5079 47.5858 40.3949 47.5885C40.2275 47.5911 40.076 47.623 39.9751 47.6788C39.4901 47.947 39.0556 48.1237 38.6052 48.1436C38.1349 48.1635 37.6778 48.0148 37.1756 47.627C37.0706 47.5446 36.9271 47.5221 36.7677 47.53H36.7664C36.6308 47.5354 36.4807 47.5632 36.3253 47.6004V46.866ZM41.5097 38.7519C41.6465 38.7253 41.7834 38.7054 41.9176 38.6988C42.2378 38.6842 42.538 38.7439 42.7985 38.9444C43.1545 39.2193 43.4601 39.3256 43.7591 39.3136C44.0766 39.299 44.4194 39.1556 44.8167 38.9352C45.016 38.8249 45.2844 38.7625 45.5647 38.7572C45.6817 38.7545 45.8012 38.7625 45.9195 38.7798V39.5089C45.8092 39.4823 45.691 39.4717 45.5793 39.473C45.4119 39.477 45.2618 39.5089 45.1608 39.5646C44.6759 39.8329 44.2414 40.0095 43.7896 40.0294C43.3206 40.0494 42.8636 39.9006 42.3613 39.5115C42.255 39.4305 42.1129 39.4079 41.9508 39.4146H41.9495C41.8153 39.4212 41.6651 39.4491 41.5097 39.4863V38.7519ZM41.5097 40.8833C41.6465 40.8555 41.7834 40.8369 41.9176 40.8302C42.2378 40.8143 42.538 40.8741 42.7985 41.0759C43.1545 41.3508 43.4601 41.457 43.7591 41.4438C44.0766 41.4305 44.4194 41.2857 44.8167 41.0666C45.016 40.9564 45.2844 40.894 45.5647 40.8887C45.6817 40.886 45.8012 40.8926 45.9195 40.9099V41.639C45.8092 41.6138 45.691 41.6018 45.5793 41.6045C45.4119 41.6084 45.2618 41.639 45.1608 41.6961C44.6759 41.9643 44.2414 42.141 43.7896 42.1596C43.3206 42.1808 42.8636 42.0321 42.3613 41.643C42.255 41.562 42.1129 41.5381 41.9508 41.546H41.9495C41.8153 41.5527 41.6651 41.5806 41.5097 41.6164V40.8833ZM41.5097 43.0135C41.6465 42.9869 41.7834 42.967 41.9176 42.9617V42.9604C42.2378 42.9457 42.538 43.0055 42.7985 43.2074C43.1545 43.4823 43.4601 43.5885 43.7591 43.5752C44.0766 43.5619 44.4194 43.4172 44.8167 43.1981C45.016 43.0865 45.2844 43.0254 45.5647 43.0188C45.6817 43.0175 45.8012 43.0241 45.9195 43.0414V43.7704C45.8092 43.7439 45.691 43.7333 45.5793 43.7359C45.4119 43.7386 45.2618 43.7704 45.1608 43.8262C44.6759 44.0945 44.2414 44.2724 43.7896 44.291C43.3206 44.3109 42.8636 44.1622 42.3613 43.7744C42.255 43.6934 42.1129 43.6695 41.9508 43.6775H41.9495C41.8153 43.6828 41.6651 43.7107 41.5097 43.7479V43.0135ZM35.9811 33.0494C36.4621 32.7599 36.9404 32.5448 37.4068 32.392L37.5423 33.3363C37.1012 33.5049 36.6494 33.7307 36.1977 34.0228L35.9811 33.0494ZM37.8226 32.2699C38.5029 32.0959 39.1473 32.0521 39.7147 32.0986L39.7957 32.9219C39.2324 32.9139 38.6092 32.9936 37.9568 33.1942L37.8226 32.2699ZM40.1544 32.1543C40.3179 32.1835 40.4746 32.2194 40.6221 32.2632C41.1576 32.4199 41.6106 32.5647 42.0079 32.6948L42.0783 33.4186C41.7714 33.3203 41.4326 33.2154 41.0513 33.1025C40.8028 33.0308 40.5278 32.9764 40.2315 32.9472L40.1544 32.1543ZM42.4557 32.8436C43.019 33.0335 43.4668 33.1862 43.9013 33.3004L43.9398 34.0295C43.5306 33.9046 43.0841 33.7493 42.5261 33.5647L42.4557 32.8436ZM44.341 33.404C44.8619 33.5089 45.4133 33.558 46.1706 33.5461L46.2649 34.388C45.4983 34.3801 44.9469 34.3004 44.3796 34.1543L44.341 33.404ZM46.6037 33.5341C47.106 33.5142 47.6932 33.4717 48.4027 33.4053L48.5555 34.2712C47.8102 34.3363 47.2083 34.3734 46.6981 34.3854L46.6037 33.5341ZM36.6707 27.3031L36.8992 28.8808C36.3133 29.072 35.7154 29.3814 35.1095 29.8303L35.0697 34.9498C40.2474 34.9498 45.1342 34.9498 50.1645 34.9498C49.5706 32.4345 48.9767 29.9206 48.3815 27.4054C46.1281 27.9698 43.9331 27.8423 41.7276 26.3961C40.1066 25.3337 37.8107 25.7361 35.1295 27.0189L35.1228 28.1623C35.645 27.7772 36.1618 27.4943 36.6707 27.3031ZM36.9763 29.4186L37.1118 30.3562C36.6308 30.501 36.1153 30.7427 35.5506 31.1105L35.3606 30.2579C35.9466 29.8542 36.4794 29.5846 36.9763 29.4186ZM37.1876 30.8728L37.331 31.8728C36.8487 32.0096 36.3518 32.2088 35.8549 32.481L35.6583 31.5926C36.1977 31.2539 36.7066 31.0202 37.1876 30.8728ZM37.7496 31.7679L37.6047 30.7639C38.3289 30.6085 38.9866 30.6457 39.5871 30.7958L39.6721 31.659C39.1061 31.5939 38.4498 31.6178 37.7496 31.7679ZM37.533 30.2526L37.3935 29.3018C38.1389 29.1304 38.8045 29.1889 39.4463 29.3602L39.5446 30.3668C38.9121 30.1875 38.2584 30.1105 37.533 30.2526ZM37.3164 28.7652L37.0852 27.1663C37.8107 26.9605 38.5215 26.9339 39.2204 27.0468L39.3851 28.736C38.7089 28.6032 38.0193 28.6019 37.3164 28.7652ZM40.1119 31.7307L40.0335 30.9206C40.7696 31.1384 41.3675 31.3456 41.8937 31.5288L41.9681 32.2898C41.5203 32.1397 41.0008 31.9737 40.367 31.7944C40.2846 31.7705 40.1996 31.7493 40.1119 31.7307ZM39.9923 30.4996L39.8927 29.489C40.6328 29.7121 41.232 29.9339 41.7568 30.1331L41.8564 31.1517C41.3303 30.9512 40.7351 30.7267 39.9923 30.4996ZM39.8302 28.8409L39.6628 27.1384C40.2488 27.2832 40.8254 27.5222 41.3967 27.833C41.4446 27.8582 41.4911 27.8834 41.5389 27.9073L41.7103 29.651C41.604 29.6006 41.5004 29.5474 41.3967 29.4903C40.8799 29.2101 40.3577 28.9883 39.8302 28.8409ZM42.4171 32.4412L42.3427 31.6855C42.8782 31.8701 43.3485 32.0229 43.8401 32.1251L43.8813 32.91C43.4322 32.7931 42.9818 32.6337 42.4171 32.4412ZM42.3082 31.323L42.2085 30.3044C42.7639 30.5156 43.2515 30.6909 43.7724 30.8011L43.8255 31.7931C43.3153 31.6895 42.841 31.5235 42.3082 31.323ZM42.1634 29.8476L41.996 28.1225C42.5447 28.3575 43.1014 28.5089 43.6581 28.5953L43.7445 30.2593C43.2104 30.1822 42.6815 30.0494 42.1634 29.8476ZM44.3211 33.0109L44.2786 32.2008C44.7888 32.2725 45.3415 32.2898 46.0244 32.2353L46.1254 33.1437C45.3774 33.157 44.8273 33.1092 44.3211 33.0109ZM44.2613 31.8635L44.2095 30.8768C44.6931 30.9419 45.2246 30.9485 45.873 30.8781L45.9806 31.8462C45.3056 31.9272 44.7569 31.9259 44.2613 31.8635ZM44.1803 30.3084L44.0939 28.6484C44.6015 28.6949 45.1103 28.6895 45.6245 28.6457L45.8092 30.2991C45.2645 30.3469 44.721 30.3549 44.1803 30.3084ZM46.5599 33.1304L46.4536 32.1942C46.9439 32.1397 47.4979 32.0507 48.1423 31.9259L48.3323 32.9976C47.6374 33.0653 47.0568 33.1092 46.5599 33.1304ZM46.4084 31.7878L46.3008 30.8237C46.7658 30.7559 47.2893 30.651 47.8925 30.5049L48.0347 31.3097V31.4518C47.4182 31.6032 46.8828 31.7134 46.4084 31.7878ZM46.237 30.2513L46.0523 28.6006C46.536 28.5382 47.0223 28.4452 47.5099 28.3297L47.7955 29.9565C47.2827 30.0826 46.7605 30.1849 46.237 30.2513ZM33.8779 33.0494C33.3969 32.7599 32.9186 32.5448 32.4535 32.392L32.3167 33.3363C32.7591 33.5049 33.2096 33.7307 33.6626 34.0228L33.8779 33.0494ZM32.0377 32.2699C31.3561 32.0959 30.713 32.0521 30.1457 32.0986L30.0646 32.9219C30.628 32.9139 31.2511 32.9936 31.9035 33.1942L32.0377 32.2699ZM29.7072 32.1543C29.5411 32.1835 29.3857 32.2194 29.2409 32.2632C28.7028 32.4199 28.2497 32.5647 27.8524 32.6948L27.782 33.4186C28.0902 33.3203 28.4277 33.2154 28.809 33.1025C29.0575 33.0308 29.3325 32.9764 29.6288 32.9472L29.7072 32.1543ZM27.4033 32.8436C26.84 33.0335 26.3935 33.1862 25.9577 33.3004L25.9219 34.0295C26.3298 33.9046 26.7762 33.7493 27.3329 33.5647L27.4033 32.8436ZM25.5193 33.404C24.9985 33.5089 24.4457 33.558 23.6884 33.5461L23.5954 34.388C24.3607 34.3801 24.9134 34.3004 25.4794 34.1543L25.5193 33.404ZM23.2566 33.5341C22.7544 33.5142 22.1671 33.4717 21.4589 33.4053L21.3048 34.2712C22.0488 34.3363 22.6521 34.3734 23.1623 34.3854L23.2566 33.5341ZM33.1883 27.3031L32.9611 28.8808C33.547 29.072 34.1449 29.3814 34.7508 29.8303L34.7893 34.9498C29.6116 34.9498 24.7248 34.9498 19.6945 34.9498C20.2897 32.4345 20.8836 29.9206 21.4775 27.4054C23.7309 27.9698 25.9272 27.8423 28.1354 26.3961C29.7537 25.3337 32.0483 25.7361 34.7295 27.0189L34.7402 28.1623C34.2153 27.7772 33.6972 27.4943 33.1883 27.3031ZM32.8827 29.4186L32.7472 30.3562C33.2295 30.501 33.7463 30.7427 34.3084 31.1105L34.4997 30.2579C33.9151 29.8542 33.3796 29.5846 32.8827 29.4186ZM32.6728 30.8728L32.5293 31.8728C33.0103 32.0096 33.5072 32.2088 34.0041 32.481L34.2021 31.5926C33.664 31.2539 33.1538 31.0202 32.6728 30.8728ZM32.1094 31.7679L32.2543 30.7639C31.5301 30.6085 30.8738 30.6457 30.2732 30.7958L30.1882 31.659C30.7542 31.5939 31.4106 31.6178 32.1094 31.7679ZM32.3287 30.2526L32.4655 29.3018C31.7215 29.1304 31.0558 29.1889 30.4127 29.3602L30.3144 30.3668C30.9482 30.1875 31.6019 30.1105 32.3287 30.2526ZM32.5439 28.7652L32.7751 27.1663C32.0496 26.9605 31.3388 26.9339 30.6413 27.0468L30.4752 28.736C31.1528 28.6032 31.841 28.6019 32.5439 28.7652ZM29.7484 31.7307L29.8268 30.9206C29.0907 31.1384 28.4915 31.3456 27.9667 31.5288L27.8923 32.2898C28.3387 32.1397 28.8595 31.9737 29.4946 31.7944C29.5744 31.7705 29.6594 31.7493 29.7484 31.7307ZM29.868 30.4996L29.9663 29.489C29.2262 29.7121 28.6283 29.9339 28.1035 30.1331L28.0052 31.1517C28.5287 30.9512 29.1279 30.7267 29.868 30.4996ZM30.0301 28.8409L30.1962 27.1384C29.6116 27.2832 29.0336 27.5222 28.4636 27.833C28.4158 27.8582 28.3679 27.8834 28.3201 27.9073L28.15 29.651C28.255 29.6006 28.36 29.5474 28.4636 29.4903C28.9804 29.2101 29.5013 28.9883 30.0301 28.8409ZM27.4432 32.4412L27.5176 31.6855C26.9821 31.8701 26.5105 32.0229 26.0189 32.1251L25.9777 32.91C26.4281 32.7931 26.8785 32.6337 27.4432 32.4412ZM27.5521 31.323L27.6518 30.3044C27.0964 30.5156 26.6088 30.6909 26.088 30.8011L26.0361 31.7931C26.545 31.6895 27.0193 31.5235 27.5521 31.323ZM27.697 29.8476L27.8657 28.1225C27.3156 28.3575 26.7603 28.5089 26.2022 28.5953L26.1159 30.2593C26.65 30.1822 27.1788 30.0494 27.697 29.8476ZM25.5406 33.0109L25.5831 32.2008C25.0742 32.2725 24.5201 32.2898 23.8359 32.2353L23.7336 33.1437C24.4816 33.157 25.033 33.1092 25.5406 33.0109ZM25.599 31.8635L25.6495 30.8768C25.1672 30.9419 24.6357 30.9485 23.9874 30.8781L23.8784 31.8462C24.5534 31.9272 25.1021 31.9259 25.599 31.8635ZM25.6787 30.3084L25.7651 28.6484C25.2589 28.6949 24.7487 28.6895 24.2385 28.6457L24.0538 30.2991C24.5945 30.3469 25.1393 30.3549 25.6787 30.3084ZM23.3031 33.1304L23.4067 32.1942C22.9165 32.1397 22.3611 32.0507 21.718 31.9259L21.5293 32.9976C22.2256 33.0653 22.8035 33.1092 23.3031 33.1304ZM23.4519 31.7878L23.5595 30.8237C23.0945 30.7559 22.5697 30.651 21.9691 30.5049L21.8256 31.3097V31.4518C22.4421 31.6032 22.9762 31.7134 23.4519 31.7878ZM23.6233 30.2513L23.808 28.6006C23.3244 28.5382 22.8381 28.4452 22.3518 28.3297L22.0648 29.9565C22.5803 30.0826 23.0998 30.1849 23.6233 30.2513ZM51.6194 37.7917C51.4361 38.2273 51.2328 38.6549 51.0175 39.0719C51.0468 39.0148 51.076 38.9577 51.1052 38.9006V38.7798C50.9856 38.7625 50.8661 38.7545 50.7505 38.7572C50.4688 38.7625 50.1991 38.8249 49.9998 38.9352C49.6025 39.1556 49.2611 39.299 48.9448 39.3136C48.6459 39.3256 48.3403 39.2193 47.9842 38.9444C47.7238 38.7439 47.4222 38.6842 47.102 38.6988C46.9665 38.7054 46.8309 38.7253 46.6954 38.7519V39.4863C46.8509 39.4491 46.9997 39.4212 47.1352 39.4146H47.1365C47.2973 39.4079 47.4408 39.4305 47.5458 39.5115C48.048 39.9006 48.505 40.0494 48.9754 40.0294C49.4258 40.0095 49.8616 39.8329 50.3452 39.5646C50.4462 39.5089 50.5964 39.477 50.7638 39.473C50.7771 39.473 50.7903 39.473 50.8036 39.473C50.4728 40.0759 50.1087 40.6576 49.7128 41.2153C49.4338 41.3495 49.1827 41.4345 48.9435 41.4438C48.6459 41.457 48.339 41.3508 47.9842 41.0759C47.7238 40.8741 47.4222 40.8143 47.102 40.8302C46.9665 40.8369 46.8309 40.8555 46.6954 40.8833V41.6164C46.8509 41.5806 46.9997 41.5527 47.1352 41.546H47.1365C47.2973 41.5381 47.4408 41.562 47.5458 41.643C48.048 42.0321 48.505 42.1808 48.9754 42.1596H48.9953C49.0618 42.0786 49.1269 41.9962 49.1906 41.9139C48.8279 42.3774 48.4453 42.8222 48.0374 43.2472C48.0201 43.2339 48.0015 43.2206 47.9842 43.2074C47.7238 43.0055 47.4222 42.9457 47.102 42.9604V42.9617C46.9665 42.967 46.8309 42.9869 46.6954 43.0135V43.7479C46.8509 43.7107 46.9997 43.6828 47.1339 43.6775H47.1352C47.288 43.6695 47.4248 43.6908 47.5272 43.7611C47.5723 43.716 47.6188 43.6722 47.6653 43.627C46.2516 45.0241 44.6094 46.1887 42.7998 47.0599H42.7985C42.538 46.8581 42.2378 46.7983 41.9176 46.8129V46.8142C41.7834 46.8196 41.6452 46.8395 41.5097 46.866V47.6004C41.5482 47.5911 41.5854 47.5832 41.6226 47.5752L41.6439 47.5672C39.5831 48.3866 37.3337 48.8368 34.9807 48.8368C32.9558 48.8368 31.0093 48.5035 29.1917 47.8886C29.3272 47.8275 29.4641 47.7571 29.6049 47.6788C29.7072 47.623 29.8574 47.5911 30.0234 47.5885C30.135 47.5858 30.252 47.5964 30.3636 47.623V46.8939C30.2453 46.8767 30.1257 46.87 30.0101 46.8713C29.7285 46.878 29.4588 46.9391 29.2595 47.0506C28.8622 47.2698 28.5207 47.4145 28.2032 47.4278C28.1102 47.4318 28.0145 47.4238 27.9175 47.4026C27.5256 47.2366 27.1416 47.0559 26.7642 46.8634C26.9755 46.9709 27.1881 47.0745 27.4033 47.1741C27.3515 47.1396 27.2997 47.1011 27.2439 47.0599C27.0765 46.9311 26.8931 46.8594 26.6991 46.8289C25.9511 46.4424 25.2323 46.0042 24.5494 45.5194C24.7168 45.6376 24.8869 45.7532 25.0582 45.8674V45.1728C24.9387 45.1556 24.8204 45.1489 24.7035 45.1502C24.5122 45.1542 24.3262 45.1848 24.1641 45.2379C21.617 43.3295 19.5922 40.7625 18.3419 37.7917H51.6194Z" fill="#363636"/>
<path fill-rule="evenodd" clip-rule="evenodd" d="M42.4676 14.3926C46.5054 16.2372 49.7433 19.5253 51.521 23.5984H42.4676V14.3926ZM18.4375 23.5984C20.2139 19.5253 23.4518 16.2372 27.4896 14.3926V23.5984H18.4375Z" fill="#363636"/>
<path fill-rule="evenodd" clip-rule="evenodd" d="M31.9674 15.9143C32.1999 15.9143 32.3886 16.1028 32.3886 16.3352C32.3886 16.569 32.1999 16.7575 31.9674 16.7575C31.7335 16.7575 31.5449 16.569 31.5449 16.3352C31.5449 16.1028 31.7335 15.9143 31.9674 15.9143ZM37.9928 15.9143C38.2267 15.9143 38.4153 16.1028 38.4153 16.3352C38.4153 16.569 38.2267 16.7575 37.9928 16.7575C37.7603 16.7575 37.5716 16.569 37.5716 16.3352C37.5716 16.1028 37.7603 15.9143 37.9928 15.9143ZM32.9904 14.1029C33.2243 14.1029 33.4129 14.2928 33.4129 14.5252C33.4129 14.7576 33.2243 14.9475 32.9904 14.9475C32.7579 14.9475 32.5692 14.7576 32.5692 14.5252C32.5692 14.2928 32.7579 14.1029 32.9904 14.1029ZM36.9698 14.1029C37.2023 14.1029 37.3909 14.2928 37.3909 14.5252C37.3909 14.7576 37.2023 14.9475 36.9698 14.9475C36.7359 14.9475 36.5472 14.7576 36.5472 14.5252C36.5472 14.2928 36.7359 14.1029 36.9698 14.1029ZM40.3977 17.2024V22.2622C39.2723 21.2263 37.2674 20.5384 34.9821 20.5384C32.6928 20.5384 30.6879 21.2263 29.5625 22.2622V17.2144L33.2415 20.0763L34.9728 17.1945L36.7054 20.0763L40.3977 17.2024ZM34.9821 12.7695C35.3156 12.7695 35.5866 13.0418 35.5866 13.3764C35.5866 13.7111 35.3156 13.982 34.9821 13.982C34.6446 13.982 34.3736 13.7111 34.3736 13.3764C34.3736 13.0418 34.6446 12.7695 34.9821 12.7695Z" fill="#B3B3B3"/>
<path fill-rule="evenodd" clip-rule="evenodd" d="M12.0588 52.4162C10.8258 51.1121 9.70445 49.7017 8.70796 48.2024C7.72077 46.7137 6.85449 45.1374 6.12638 43.488L5.99219 43.1799L6.29114 43.0245L11.9539 40.1122L12.298 39.9355L12.4481 40.2928C13.0168 41.6381 13.7037 42.9249 14.4956 44.136C15.2941 45.3591 16.2003 46.5065 17.2021 47.565L17.4465 47.8253L17.1848 48.0723L12.5651 52.4321L12.3033 52.6778L12.0588 52.4162ZM9.30586 47.8067C10.2133 49.1719 11.2271 50.4614 12.3339 51.6619L16.4354 47.7947C15.5027 46.7801 14.6524 45.6872 13.895 44.5265C13.151 43.3884 12.4973 42.1839 11.9419 40.9249L6.92225 43.5066C7.60385 45.0085 8.40237 46.4468 9.30586 47.8067Z" fill="#363636"/>
<path fill-rule="evenodd" clip-rule="evenodd" d="M63.9146 43.287C63.1905 44.959 62.3295 46.5526 61.3463 48.0519C60.3525 49.5645 59.2311 50.9908 57.9901 52.3148L57.7536 52.5685L57.4932 52.3401L52.7127 48.1542L52.4297 47.9072L52.6874 47.6376C53.6653 46.6097 54.5542 45.4968 55.3421 44.3109C56.1273 43.1343 56.8089 41.886 57.3803 40.5805L57.5211 40.2578L57.8453 40.3919L63.7233 42.8142L64.0594 42.9523L63.9146 43.287ZM60.7444 47.6588C61.6452 46.287 62.4371 44.8421 63.1108 43.3375L57.8945 41.1874C57.3351 42.4172 56.6814 43.5938 55.9427 44.7067C55.1986 45.8235 54.3709 46.8779 53.4634 47.8593L57.7031 51.5711C58.8152 50.3573 59.833 49.0479 60.7444 47.6588Z" fill="#363636"/>
<path fill-rule="evenodd" clip-rule="evenodd" d="M12.0151 52.9472C14.9288 55.967 18.4365 58.4132 22.3494 60.0998C26.2198 61.7691 30.4887 62.6934 34.9743 62.6934C39.4904 62.6934 43.7859 61.7572 47.6776 60.0666C51.6077 58.3588 55.1273 55.8834 58.0451 52.829L53.7402 49.0614C51.3553 51.5102 48.496 53.4943 45.3086 54.8635C42.1371 56.226 38.6427 56.9817 34.9743 56.9817C31.2899 56.9817 27.7783 56.218 24.5935 54.8422C21.3981 53.4611 18.5348 51.4638 16.1485 49.0003L12.0151 52.9472ZM22.0651 60.7598C17.9529 58.9869 14.2765 56.3907 11.2445 53.1809L11 52.9219L11.2591 52.6749L15.9134 48.234L16.1738 47.9844L16.4222 48.2473C18.7899 50.7626 21.6638 52.7958 24.8778 54.1849C27.9709 55.5208 31.3842 56.2619 34.9743 56.2619C38.5457 56.2619 41.9418 55.5275 45.0242 54.2035C48.229 52.8263 51.0949 50.8117 53.4599 48.319L53.6964 48.0694L53.9555 48.2965L58.7984 52.5355L59.0774 52.7798L58.8263 53.0494C55.7903 56.2977 52.0993 58.9272 47.9632 60.724C43.9812 62.4531 39.5887 63.4132 34.9743 63.4132C30.3891 63.4132 26.0244 62.4677 22.0651 60.7598Z" fill="#363636"/>
<path fill-rule="evenodd" clip-rule="evenodd" d="M34.9792 11.2793C40.3722 11.2793 45.2564 13.4639 48.7906 16.9977C52.3275 20.5302 54.5118 25.412 54.5118 30.8037C54.5118 36.1941 52.3275 41.0759 48.7906 44.6097C45.2564 48.1422 40.3722 50.3281 34.9792 50.3281C29.5849 50.3281 24.7007 48.1422 21.1665 44.6097C17.6323 41.0759 15.4453 36.1941 15.4453 30.8037C15.4453 25.412 17.6323 20.5302 21.1665 16.9977C24.7007 13.4639 29.5849 11.2793 34.9792 11.2793ZM48.3668 17.4213C44.9428 13.9964 40.2088 11.8782 34.9792 11.8782C29.751 11.8782 25.0156 13.9964 21.5903 17.4213C18.1637 20.8463 16.0445 25.5767 16.0445 30.8037C16.0445 36.0294 18.1637 40.7611 21.5903 44.1861C25.0156 47.6097 29.751 49.7292 34.9792 49.7292C40.2088 49.7292 44.9428 47.6097 48.3668 44.1861C51.7934 40.7611 53.9139 36.0294 53.9139 30.8037C53.9139 25.5767 51.7934 20.8463 48.3668 17.4213Z" fill="#363636"/>
<path fill-rule="evenodd" clip-rule="evenodd" d="M18.1182 42.2227L18.453 42.6489L17.3249 43.5307C17.1456 43.6702 17.034 43.7658 16.9901 43.8176C16.9197 43.9026 16.8838 43.9995 16.8865 44.1084C16.8878 44.2173 16.9357 44.3315 17.03 44.4511C17.1243 44.5719 17.22 44.6449 17.317 44.6689C17.4153 44.6928 17.5017 44.6821 17.584 44.6396C17.6638 44.5958 17.786 44.5108 17.9507 44.382L19.1027 43.4816L19.4375 43.9092L18.3427 44.7631C18.0942 44.9584 17.9082 45.0845 17.786 45.143C17.6651 45.2001 17.5455 45.2253 17.4259 45.2186C17.3063 45.212 17.1841 45.1735 17.0619 45.1031C16.9383 45.0314 16.8108 44.9119 16.6792 44.7445C16.5224 44.5427 16.4254 44.3714 16.3896 44.2306C16.3537 44.0912 16.351 43.9624 16.375 43.8442C16.4015 43.726 16.4467 43.6264 16.5118 43.544C16.6088 43.4232 16.7762 43.2718 17.0074 43.0898L18.1182 42.2227ZM17.8232 46.0168L19.7564 44.216L20.1165 44.6011L19.5757 46.6077L20.8658 45.4046L21.2099 45.7738L19.2767 47.5745L18.906 47.1761L19.4282 45.2107L18.1673 46.3846L17.8232 46.0168ZM19.8135 47.9769L21.582 46.0141L21.9845 46.3767L20.2161 48.3395L19.8135 47.9769ZM21.2445 49.1429L22.0217 46.4431L22.4974 46.7884L21.8969 48.7698L23.5803 47.5745L24.0453 47.9119L21.7122 49.4842L21.2445 49.1429ZM22.8229 50.2345L24.1835 47.9703L25.8908 48.9955L25.6609 49.378L24.4186 48.633L24.1157 49.135L25.2716 49.8282L25.0431 50.2093L23.8872 49.5161L23.5165 50.1323L24.8026 50.9039L24.5728 51.2863L22.8229 50.2345ZM25.075 51.524L26.0649 49.0752L27.1238 49.5028C27.3895 49.6104 27.5755 49.7113 27.6765 49.8029C27.7788 49.8959 27.8466 50.0128 27.8732 50.1549C27.8984 50.297 27.8825 50.4404 27.824 50.5851C27.7496 50.7684 27.634 50.8986 27.4759 50.9743C27.3191 51.0486 27.1238 51.0579 26.8913 51.0008C26.975 51.1071 27.0388 51.212 27.0773 51.3155C27.1185 51.4191 27.1597 51.5891 27.2022 51.8282L27.3138 52.4284L26.7132 52.1867L26.5644 51.5068C26.5139 51.2638 26.4727 51.1084 26.4448 51.0393C26.4183 50.9703 26.3811 50.9171 26.3346 50.876C26.2894 50.8361 26.2083 50.7936 26.0928 50.7458L25.9918 50.706L25.5799 51.7272L25.075 51.524ZM26.1499 50.3142L26.5206 50.4643C26.7624 50.5612 26.9165 50.613 26.9856 50.617C27.0534 50.621 27.1145 50.6064 27.1676 50.5705C27.2221 50.5347 27.2633 50.4816 27.2939 50.4072C27.3271 50.3249 27.3311 50.2492 27.3071 50.1814C27.2832 50.1124 27.2341 50.0553 27.1557 50.0075C27.1171 49.9862 26.9962 49.9344 26.793 49.8521L26.401 49.6927L26.1499 50.3142ZM27.8134 51.7033L28.3355 51.8003C28.3169 51.9769 28.3435 52.1177 28.4152 52.2226C28.4857 52.3275 28.5999 52.4032 28.7594 52.4483C28.9268 52.4962 29.065 52.4975 29.1686 52.4523C29.2749 52.4072 29.34 52.3368 29.3666 52.2438C29.3838 52.1841 29.3812 52.127 29.3559 52.0752C29.3347 52.0221 29.2815 51.9676 29.2005 51.9118C29.1473 51.8733 29.0171 51.7963 28.8152 51.6808C28.5561 51.5333 28.3847 51.3926 28.301 51.2611C28.1801 51.0765 28.1508 50.8826 28.208 50.6821C28.2452 50.5519 28.3169 50.443 28.4245 50.3514C28.5308 50.2598 28.6624 50.2053 28.8192 50.1867C28.9786 50.1681 29.1553 50.1867 29.3533 50.2438C29.6775 50.3368 29.9007 50.4762 30.0256 50.6635C30.1491 50.8494 30.181 51.0606 30.1226 51.297L29.5951 51.1695C29.6097 51.0327 29.5898 50.9251 29.5326 50.8468C29.4755 50.7684 29.3732 50.7086 29.2271 50.6675C29.0756 50.6237 28.9467 50.6197 28.8444 50.6569C28.778 50.6794 28.7355 50.7246 28.7169 50.7897C28.6983 50.8507 28.7102 50.9092 28.7501 50.9663C28.7992 51.0393 28.9427 51.1416 29.1806 51.2731C29.4171 51.4059 29.5871 51.5201 29.6908 51.617C29.7931 51.7153 29.8635 51.8282 29.902 51.957C29.9392 52.0871 29.9339 52.2319 29.8887 52.3912C29.8462 52.5373 29.7665 52.6622 29.6482 52.7644C29.53 52.868 29.3865 52.9291 29.2178 52.9477C29.0503 52.9663 28.8537 52.9437 28.6292 52.8799C28.3023 52.7857 28.0738 52.6396 27.9409 52.4417C27.8094 52.2438 27.7655 51.9968 27.8134 51.7033ZM30.193 53.2425L30.6965 50.6489L31.2307 50.7525L30.7245 53.3448L30.193 53.2425ZM31.9588 53.5214L32.2258 51.3434L31.4353 51.2465L31.4898 50.8029L33.609 51.0619L33.5545 51.5068L32.7653 51.4098L32.4982 53.5878L31.9588 53.5214ZM34.4248 53.7073L34.4646 52.5958L33.5332 51.0327L34.1683 51.0553L34.7649 52.1217L35.4199 51.0991L36.0444 51.1203L35.0041 52.6183L34.9655 53.7259L34.4248 53.7073ZM37.0821 52.3979C37.0303 52.1336 37.0276 51.9039 37.0728 51.71C37.1073 51.5665 37.1658 51.4311 37.2495 51.3063C37.3319 51.1814 37.4315 51.0818 37.5444 51.0075C37.6972 50.9065 37.8779 50.8361 38.0932 50.7936C38.4811 50.7179 38.816 50.7764 39.095 50.9676C39.374 51.1588 39.5547 51.4669 39.6384 51.8879C39.7181 52.3076 39.6663 52.6568 39.4816 52.9384C39.2956 53.2199 39.0086 53.3979 38.622 53.4736C38.23 53.5493 37.8952 53.4922 37.6175 53.3023C37.3398 53.1123 37.1618 52.8109 37.0821 52.3979ZM37.6268 52.2744C37.684 52.5679 37.7969 52.7764 37.963 52.9012C38.1304 53.026 38.3204 53.0672 38.533 53.026C38.7456 52.9849 38.905 52.876 39.0113 52.6993C39.1176 52.5227 39.1428 52.2837 39.0857 51.9835C39.0259 51.6861 38.9169 51.4776 38.7562 51.3567C38.5954 51.2359 38.4054 51.1974 38.1862 51.2399C37.9656 51.2823 37.8035 51.3912 37.6972 51.5652C37.5923 51.7392 37.5697 51.9756 37.6268 52.2744ZM40.3838 53.0805L39.6557 50.5413L41.4268 50.034L41.549 50.463L40.3014 50.8215L40.4741 51.4218L41.5517 51.1124L41.6739 51.5426L40.5964 51.8521L40.9059 52.9304L40.3838 53.0805ZM43.7719 52.0008L42.6651 49.6263L43.1554 49.3979L44.0761 51.3687L45.2972 50.799L45.4858 51.2027L43.7719 52.0008ZM47.993 49.7392L47.4868 50.0433L46.9766 49.6489L46.0558 50.2013L46.1754 50.8308L45.6825 51.127L45.2188 48.3235L45.7104 48.0287L47.993 49.7392ZM46.5992 49.3581L45.7768 48.7073L45.9708 49.7352L46.5992 49.3581ZM48.6945 47.9756L48.4129 47.629L49.3217 46.8933L49.9847 47.7113C49.9647 47.8667 49.8956 48.0447 49.78 48.2439C49.6645 48.4444 49.521 48.613 49.3496 48.7525C49.1303 48.9291 48.9045 49.038 48.6693 49.0792C48.4328 49.1203 48.2069 49.0911 47.989 48.9889C47.7738 48.8879 47.5838 48.7379 47.4243 48.5413C47.2516 48.3275 47.1427 48.1004 47.0988 47.8601C47.0563 47.621 47.0855 47.386 47.1892 47.1549C47.2676 46.9783 47.4071 46.8096 47.6064 46.6476C47.8654 46.4378 48.1126 46.3275 48.3438 46.3169C48.5763 46.3063 48.7889 46.378 48.9842 46.5321L48.6281 46.9477C48.5165 46.8707 48.3969 46.8362 48.2694 46.8441C48.1392 46.8508 48.0156 46.9039 47.8934 47.0022C47.7087 47.1509 47.609 47.3275 47.5931 47.5294C47.5785 47.7326 47.6622 47.9464 47.8455 48.1735C48.0422 48.4165 48.2454 48.5546 48.454 48.5878C48.6626 48.621 48.8566 48.5639 49.0347 48.4205C49.1237 48.3488 49.1981 48.2598 49.2605 48.1536C49.3203 48.0486 49.3628 47.9451 49.3894 47.8455L49.1768 47.5838L48.6945 47.9756ZM49.6259 46.7963C49.4306 46.6131 49.2911 46.4298 49.214 46.2452C49.1582 46.1084 49.1263 45.965 49.1197 45.8149C49.1131 45.6649 49.1343 45.5267 49.1821 45.3993C49.2473 45.2293 49.3522 45.0646 49.5024 44.9052C49.7721 44.6157 50.075 44.467 50.4138 44.4577C50.7526 44.4484 51.0795 44.5905 51.393 44.884C51.7066 45.1748 51.8687 45.4882 51.8846 45.8256C51.9006 46.1615 51.773 46.4736 51.5046 46.7618C51.2323 47.054 50.928 47.204 50.5932 47.2133C50.2557 47.2226 49.9342 47.0832 49.6259 46.7963ZM49.994 46.3767C50.2132 46.5799 50.4271 46.6834 50.6357 46.6861C50.8443 46.6888 51.0223 46.6104 51.1698 46.4524C51.3173 46.2943 51.3824 46.1124 51.3638 45.9066C51.3465 45.7007 51.2256 45.4935 51.0037 45.2851C50.7805 45.0792 50.5693 44.9743 50.3686 44.9703C50.168 44.9677 49.99 45.0487 49.8385 45.212C49.687 45.3754 49.6179 45.5586 49.6352 45.7618C49.6525 45.9637 49.7721 46.1682 49.994 46.3767ZM51.9604 44.9557L52.2447 44.5095C52.4028 44.5918 52.5423 44.6197 52.6672 44.5932C52.7908 44.5666 52.9037 44.4896 53.006 44.3594C53.1123 44.2213 53.1655 44.0952 53.1628 43.9809C53.1588 43.8667 53.1203 43.7791 53.0446 43.7193C52.9941 43.6808 52.9409 43.6635 52.8825 43.6662C52.8253 43.6675 52.7549 43.6954 52.6725 43.7485C52.6167 43.7857 52.4971 43.876 52.3151 44.0195C52.0813 44.2054 51.8846 44.3116 51.7318 44.3408C51.5153 44.3807 51.3253 44.3369 51.1605 44.208C51.0542 44.1257 50.9798 44.0181 50.9346 43.884C50.8908 43.7512 50.8881 43.6078 50.9293 43.4551C50.9719 43.3023 51.0556 43.1456 51.1831 42.9823C51.3904 42.7167 51.6043 42.5626 51.8235 42.5175C52.0427 42.4723 52.2513 42.5215 52.4493 42.6649L52.1331 43.1058C52.0109 43.0407 51.9032 43.0195 51.8116 43.0434C51.7159 43.0659 51.6216 43.139 51.5286 43.2585C51.4316 43.3833 51.3797 43.5002 51.3758 43.6091C51.3731 43.6795 51.397 43.7353 51.4515 43.7778C51.5007 43.8163 51.5591 43.8282 51.6282 43.8136C51.7146 43.7937 51.8634 43.6994 52.0733 43.5294C52.2846 43.3594 52.4546 43.2439 52.5835 43.1855C52.7137 43.1257 52.8439 43.1031 52.9781 43.1164C53.1123 43.1297 53.2439 43.1881 53.3754 43.2917C53.495 43.3847 53.5813 43.5055 53.6318 43.6543C53.6836 43.803 53.6863 43.9584 53.6411 44.1204C53.5973 44.2837 53.5003 44.4577 53.3568 44.641C53.1482 44.9079 52.9263 45.0659 52.6925 45.1151C52.4586 45.1629 52.2141 45.1098 51.9604 44.9557Z" fill="#363636"/>
<path fill-rule="evenodd" clip-rule="evenodd" d="M34.9813 6.55273C41.6804 6.55273 47.7458 9.26719 52.137 13.6563C56.5268 18.044 59.2426 24.1064 59.2426 30.8035C59.2426 37.4994 56.5268 43.5618 52.137 47.9508C47.7458 52.3386 41.6804 55.053 34.9813 55.053C28.2809 55.053 22.2156 52.3386 17.8244 47.9508C13.4345 43.5618 10.7188 37.4994 10.7188 30.8035C10.7188 24.1064 13.4345 18.044 17.8244 13.6563C22.2156 9.26719 28.2809 6.55273 34.9813 6.55273ZM51.6281 14.1636C47.3684 9.90596 41.4825 7.27252 34.9813 7.27252C28.4789 7.27252 22.5943 9.90596 18.3333 14.1636C14.0736 18.4225 11.4376 24.3056 11.4376 30.8035C11.4376 37.3015 14.0736 43.1846 18.3333 47.4422C22.5943 51.7011 28.4789 54.3346 34.9813 54.3346C41.4825 54.3346 47.3684 51.7011 51.6281 47.4422C55.8878 43.1846 58.5238 37.3015 58.5238 30.8035C58.5238 24.3056 55.8878 18.4225 51.6281 14.1636Z" fill="#363636"/>
<path fill-rule="evenodd" clip-rule="evenodd" d="M15.9375 54.4545L17.5492 52.3164L17.981 52.6418L16.3693 54.7799L15.9375 54.4545ZM16.7719 55.0986L18.3464 52.9339L18.7742 53.242L18.6081 55.3323L19.6591 53.8861L20.067 54.1823L18.4912 56.3482L18.054 56.0282L18.2055 53.9817L17.1785 55.3947L16.7719 55.0986ZM20.3752 54.3509L21.2216 54.8609C21.4142 54.9751 21.5497 55.076 21.6321 55.1663C21.7437 55.2872 21.8168 55.4266 21.8527 55.586C21.8859 55.744 21.8846 55.9127 21.8474 56.0893C21.8102 56.2659 21.7251 56.4611 21.5976 56.6763C21.482 56.8648 21.3611 57.0136 21.2322 57.1225C21.0741 57.2553 20.912 57.3403 20.7419 57.3801C20.6157 57.4107 20.4695 57.4053 20.3088 57.3682C20.1852 57.3389 20.0391 57.2725 19.8677 57.1703L18.9947 56.6457L20.3752 54.3509ZM20.6064 55.0189L19.691 56.5382L20.0377 56.7453C20.1666 56.8223 20.2649 56.8728 20.3314 56.8914C20.4164 56.918 20.4988 56.9246 20.5745 56.9087C20.6516 56.8941 20.7366 56.8436 20.8296 56.7599C20.9226 56.6763 21.0223 56.5461 21.1299 56.3682C21.2362 56.1902 21.3013 56.0455 21.3292 55.9313C21.3531 55.817 21.3544 55.7174 21.3305 55.6311C21.3053 55.5435 21.2548 55.4638 21.1804 55.3934C21.1246 55.3403 21.0023 55.2566 20.8123 55.1437L20.6064 55.0189ZM21.3398 57.9644L22.4306 55.5182L24.2429 56.3257L24.0596 56.74L22.7389 56.1517L22.4971 56.6935L23.7261 57.2407L23.5427 57.6524L22.3137 57.1052L22.0174 57.7719L23.3846 58.3801L23.2013 58.7918L21.3398 57.9644ZM23.6211 58.9883L24.4914 56.4571L26.3688 57.1039L26.2213 57.5328L24.8568 57.0627L24.6615 57.6231L25.9343 58.0601L25.7868 58.4863L24.5166 58.0494L24.2775 58.7387L25.6925 59.2247L25.545 59.651L23.6211 58.9883ZM26.7435 57.2247L27.6935 57.497C27.9074 57.5581 28.0668 57.6205 28.1704 57.6856C28.3073 57.7732 28.4149 57.8901 28.4893 58.0348C28.5651 58.1782 28.6076 58.3416 28.6155 58.5209C28.6248 58.7015 28.5956 58.9126 28.5252 59.1543C28.4654 59.3655 28.387 59.5408 28.2887 59.6789C28.1731 59.8476 28.0362 59.9724 27.8835 60.0547C27.7679 60.1171 27.627 60.1503 27.4596 60.1557C27.3347 60.1583 27.1753 60.1331 26.9839 60.0773L26.0061 59.7971L26.7435 57.2247ZM27.1381 57.8091L26.6491 59.5129L27.0371 59.6231C27.1832 59.6656 27.2895 59.6882 27.36 59.6895C27.4503 59.6922 27.53 59.6776 27.5991 59.643C27.6695 59.6085 27.7386 59.5381 27.8077 59.4332C27.8768 59.3283 27.9379 59.1756 27.9951 58.9764C28.0522 58.7785 28.0774 58.6205 28.0734 58.5036C28.0695 58.3867 28.0455 58.2898 27.9977 58.2128C27.9512 58.1344 27.8821 58.0707 27.7918 58.0229C27.724 57.9844 27.5845 57.9366 27.3719 57.8755L27.1381 57.8091ZM31.8654 60.9857L31.2822 60.914L31.124 60.2805L30.0611 60.1503L29.7675 60.728L29.1988 60.6576L30.5607 58.1278L31.128 58.1968L31.8654 60.9857ZM31.0071 59.813L30.7613 58.7812L30.2817 59.7241L31.0071 59.813ZM32.1763 61.0189L32.4102 58.3522L32.9363 58.3974L33.8717 60.2738L34.0272 58.493L34.5267 58.5368L34.2955 61.2035L33.7521 61.157L32.83 59.323L32.6786 61.0627L32.1763 61.0189ZM34.7327 58.4943L35.7185 58.4425C35.9418 58.4306 36.1118 58.4385 36.2301 58.4664C36.3895 58.5049 36.529 58.5793 36.6459 58.6922C36.7642 58.8037 36.8572 58.9432 36.925 59.1105C36.9914 59.2792 37.0326 59.4877 37.0459 59.7387C37.0565 59.9591 37.0392 60.1503 36.9927 60.3124C36.9369 60.5102 36.8492 60.6723 36.731 60.7984C36.6433 60.8954 36.521 60.9724 36.3629 61.0321C36.246 61.076 36.0879 61.1039 35.8886 61.1145L34.8722 61.1676L34.7327 58.4943ZM35.296 58.918L35.389 60.6882L35.7916 60.6669C35.9418 60.659 36.0507 60.6457 36.1171 60.6244C36.2035 60.5979 36.2739 60.558 36.3297 60.5023C36.3842 60.4465 36.4267 60.3575 36.4573 60.2367C36.4865 60.1158 36.4971 59.9511 36.4865 59.744C36.4759 59.5368 36.448 59.3801 36.4081 59.2712C36.3656 59.1623 36.3085 59.0786 36.2394 59.0202C36.1703 58.9618 36.0852 58.9246 35.9829 58.9073C35.9059 58.894 35.7584 58.894 35.5378 58.9047L35.296 58.918ZM38.5977 60.9259L38.2709 58.2686L38.8077 58.2035L39.1345 60.8595L38.5977 60.9259ZM39.6181 60.7918L39.1066 58.1636L39.6248 58.064L41.0425 59.6098L40.6997 57.8542L41.1926 57.7586L41.7041 60.3867L41.1713 60.4903L39.7776 58.9817L40.1111 60.6962L39.6181 60.7918ZM43.8725 59.8356L43.1112 57.7453L42.3645 58.0176L42.209 57.5913L44.2087 56.8635L44.3641 57.2898L43.6214 57.5607L44.38 59.6497L43.8725 59.8356ZM45.4403 59.2885L44.481 56.7891L45.544 56.3814C45.811 56.2792 46.0143 56.2274 46.1525 56.2247C46.2907 56.2234 46.4182 56.2659 46.5351 56.3522C46.6521 56.4399 46.7397 56.5567 46.7969 56.7055C46.8673 56.8927 46.8713 57.0694 46.8102 57.2327C46.7451 57.3974 46.6095 57.5381 46.4023 57.6537C46.5365 57.6763 46.6547 57.7108 46.7544 57.7599C46.854 57.8091 47.0015 57.9073 47.1968 58.0547L47.6897 58.4253L47.0852 58.6577L46.5125 58.2526C46.3066 58.1092 46.1724 58.0202 46.1046 57.9883C46.0369 57.9565 45.9744 57.9405 45.912 57.9419C45.8522 57.9445 45.7645 57.9671 45.6489 58.0122L45.5453 58.0508L45.9465 59.0946L45.4403 59.2885ZM45.3938 57.6524L45.7658 57.5089C46.0077 57.416 46.1551 57.3482 46.2083 57.3044C46.2601 57.2606 46.2933 57.2075 46.3093 57.1437C46.3239 57.0813 46.3172 57.0123 46.288 56.9366C46.2574 56.8529 46.207 56.7945 46.1418 56.7599C46.0781 56.7241 46.0023 56.7161 45.9146 56.7334C45.8708 56.744 45.7472 56.7891 45.5426 56.8675L45.1493 57.0176L45.3938 57.6524ZM46.7251 55.8688L47.2074 55.6245L47.8638 56.9153C47.9688 57.1212 48.0432 57.2513 48.0857 57.3057C48.1574 57.3934 48.2451 57.4465 48.3527 57.4651C48.4604 57.485 48.5826 57.4611 48.7155 57.3921C48.8523 57.323 48.9413 57.242 48.9825 57.1504C49.0237 57.0601 49.0303 56.9698 49.0024 56.8821C48.9759 56.7931 48.9134 56.6537 48.8178 56.4651L48.1441 55.1464L48.6264 54.9007L49.2655 56.153C49.4117 56.4399 49.5007 56.6484 49.5352 56.7799C49.5698 56.9113 49.5738 57.0362 49.5459 57.153C49.5166 57.2699 49.4542 57.3828 49.3625 57.4903C49.2695 57.5979 49.1287 57.7002 48.94 57.7958C48.7128 57.9126 48.5255 57.9737 48.3833 57.9817C48.2371 57.9883 48.1096 57.9671 47.998 57.918C47.8877 57.8701 47.7974 57.8037 47.7283 57.7227C47.6273 57.6019 47.509 57.4093 47.3722 57.1424L46.7251 55.8688ZM50.8745 56.7042L49.6628 54.8383L48.9958 55.2712L48.7487 54.8914L50.5344 53.7321L50.7815 54.1119L50.1159 54.5435L51.3276 56.4093L50.8745 56.7042ZM52.2736 55.7852L50.6991 53.6192L51.1363 53.3018L51.7567 54.153L52.6137 53.5315L51.9933 52.679L52.4317 52.3616L54.0048 54.5275L53.5677 54.8449L52.8795 53.8981L52.0225 54.5196L52.7107 55.4664L52.2736 55.7852Z" fill="#363636"/>
</g>
<defs>
<clipPath id="clip0_1_6125">
<rect width="70" height="70" fill="white"/>
</clipPath>
</defs>
</svg>
