<svg width="156" height="29" viewBox="0 0 156 29" fill="none" xmlns="http://www.w3.org/2000/svg">
<path d="M47.2265 24.4003L42.7742 11.5975L38.2289 24.4003H34.6797L40.9426 7.74805H44.7921L51.0084 24.4003H47.2288H47.2265ZM39.0854 18.0233H46.4608L47.3894 20.8301H38.066L39.0854 18.0233Z" fill="white"/>
<path d="M55.2935 24.4003H52.0469V7.74805H55.2935V24.4003Z" fill="white"/>
<path d="M65.0398 19.18V12.014H68.2399V24.3979H65.2935V22.7734C64.97 23.3157 64.4813 23.7602 63.8319 24.107C63.1826 24.4538 62.4634 24.6283 61.6745 24.6283C60.8855 24.6283 60.1198 24.4584 59.4704 24.1186C58.8211 23.7789 58.3114 23.2575 57.939 22.5523C57.569 21.8495 57.3828 20.9627 57.3828 19.8968V12.0117H60.6062V19.2708C60.6062 20.1365 60.804 20.7719 61.1974 21.1722C61.5907 21.5748 62.1143 21.775 62.7637 21.775C63.15 21.775 63.5177 21.6749 63.8645 21.4724C64.2113 21.2723 64.4952 20.9744 64.7117 20.5787C64.9281 20.1854 65.0375 19.7176 65.0375 19.1753L65.0398 19.18Z" fill="white"/>
<path d="M73.6687 24.3998H70.4453V12.0159H73.415V13.7777C73.8642 13.1447 74.3902 12.6536 74.993 12.3045C75.5958 11.9578 76.3079 11.7832 77.1272 11.7832C77.9464 11.7832 78.7167 11.9717 79.3428 12.3511C79.9689 12.7304 80.4367 13.275 80.7462 13.9872C81.2419 13.3076 81.8121 12.77 82.4615 12.3743C83.1108 11.981 83.8998 11.7832 84.8261 11.7832C86.0782 11.7832 87.0906 12.1812 87.8633 12.9771C88.6359 13.7731 89.0223 14.9135 89.0223 16.3984V24.3998H85.8222V17.4177C85.8222 16.5357 85.6406 15.8514 85.2776 15.365C84.9145 14.8786 84.3769 14.6342 83.6647 14.6342C83.2481 14.6342 82.8618 14.7459 82.5057 14.9694C82.1496 15.1928 81.868 15.514 81.6585 15.9329C81.4491 16.3518 81.3443 16.8685 81.3443 17.4876V24.3998H78.1442V17.4177C78.1442 16.5357 77.9627 15.8514 77.5996 15.365C77.2365 14.8786 76.6989 14.6342 75.9868 14.6342C75.5539 14.6342 75.1605 14.7459 74.8045 14.9694C74.4484 15.1928 74.1714 15.514 73.9689 15.9329C73.7688 16.3495 73.6664 16.8685 73.6664 17.4876V24.3998H73.6687Z" fill="white"/>
<path d="M94.3093 17.6505V24.3998H91.0859V12.0159H94.0556V13.7777C94.5188 13.1587 95.0634 12.6722 95.6918 12.3162C96.3178 11.9601 97.0416 11.7832 97.8609 11.7832C99.113 11.7832 100.125 12.1812 100.898 12.9771C101.671 13.7731 102.057 14.9135 102.057 16.3984V24.3998H98.857V17.4876C98.857 16.5589 98.6755 15.8514 98.3124 15.365C97.9493 14.8786 97.4047 14.6342 96.6762 14.6342C96.2434 14.6342 95.8454 14.7459 95.4823 14.9694C95.1193 15.1928 94.833 15.5256 94.6235 15.9678C94.4141 16.4077 94.3093 16.9686 94.3093 17.6482V17.6505Z" fill="white"/>
<path d="M107.878 9.13745C107.878 9.67973 107.68 10.1312 107.286 10.4943C106.893 10.8574 106.369 11.0389 105.72 11.0389C105.071 11.0389 104.573 10.8574 104.177 10.4943C103.784 10.1312 103.586 9.67973 103.586 9.13745C103.586 8.56492 103.784 8.09712 104.177 7.73405C104.57 7.37099 105.085 7.18945 105.72 7.18945C106.355 7.18945 106.891 7.37099 107.286 7.73405C107.68 8.09712 107.878 8.56492 107.878 9.13745ZM107.368 24.398H104.144V12.0141H107.368V24.398Z" fill="white"/>
<path d="M117.503 24.4003H113.977V7.74805H117.503V14.3112H124.715V7.74805H128.241V24.4003H124.715V17.3507H117.503V24.4003Z" fill="white"/>
<path d="M138.235 19.18V12.014H141.435V24.3979H138.489V22.7734C138.165 23.3157 137.677 23.7602 137.027 24.107C136.378 24.4538 135.659 24.6283 134.87 24.6283C134.081 24.6283 133.315 24.4584 132.666 24.1186C132.016 23.7789 131.507 23.2575 131.134 22.5523C130.764 21.8495 130.578 20.9627 130.578 19.8968V12.0117H133.802V19.2708C133.802 20.1365 133.999 20.7719 134.393 21.1722C134.786 21.5748 135.31 21.775 135.959 21.775C136.345 21.775 136.713 21.6749 137.06 21.4724C137.407 21.2723 137.691 20.9744 137.907 20.5787C138.123 20.1854 138.233 19.7176 138.233 19.1753L138.235 19.18Z" fill="white"/>
<path d="M156.004 18.2072C156.004 19.4128 155.775 20.5043 155.319 21.4771C154.863 22.4523 154.225 23.2203 153.406 23.7859C152.587 24.3514 151.621 24.633 150.506 24.633C149.717 24.633 148.991 24.4562 148.326 24.1001C147.66 23.744 147.087 23.2506 146.61 22.6152V24.4003H143.641V7.74805H146.864V13.6153C147.327 13.0125 147.865 12.5564 148.477 12.2468C149.087 11.9373 149.764 11.7837 150.506 11.7837C151.619 11.7837 152.585 12.063 153.406 12.6192C154.225 13.1755 154.863 13.9412 155.319 14.9163C155.775 15.8892 156.004 16.9877 156.004 18.2095V18.2072ZM152.687 18.2072C152.687 17.0156 152.401 16.1242 151.828 15.5284C151.256 14.9326 150.576 14.6347 149.787 14.6347C149.261 14.6347 148.777 14.765 148.337 15.028C147.897 15.291 147.544 15.6843 147.283 16.2103C147.02 16.7363 146.89 17.3857 146.89 18.1583C146.89 18.931 147.018 19.585 147.271 20.118C147.527 20.6509 147.879 21.0582 148.326 21.3352C148.775 21.6145 149.261 21.7518 149.787 21.7518C150.576 21.7518 151.256 21.4492 151.828 20.8464C152.401 20.2436 152.687 19.3616 152.687 18.2025V18.2072Z" fill="white"/>
<path d="M16.575 0.834148C14.8954 0.279619 13.1381 0 11.3549 0C9.66349 0 7.99568 0.251419 6.39618 0.749555C6.18417 0.815346 6.01456 0.972773 5.93211 1.17955C5.84966 1.38867 5.86851 1.61894 5.97922 1.81162L7.92265 5.16934L10.455 9.54683L10.488 9.60557C6.97332 10.0473 4.24545 13.0455 4.24545 16.6688C4.24545 17.6298 4.44098 18.5791 4.81553 19.4532H0.733155C0.497588 19.4532 0.2738 19.5683 0.137172 19.7586C0.000542876 19.949 -0.037151 20.1957 0.0382304 20.4165C0.591812 22.0472 1.47519 23.5135 2.66716 24.7729C4.94744 27.1837 8.03101 28.5113 11.3525 28.5113C14.4431 28.5113 17.3288 27.3599 19.5526 25.2593L19.5644 25.2781L21.5054 28.6334C21.6185 28.8285 21.8093 28.9577 22.0307 28.9906C22.0684 28.9953 22.1061 29 22.1415 29C22.3228 29 22.4995 28.9319 22.6361 28.8073C25.1873 26.4623 26.914 23.443 27.6325 20.0758C27.8752 18.9433 28 17.7731 28 16.6006C28 9.41525 23.4088 3.07811 16.575 0.829444V0.834148ZM9.59517 5.8672C9.7318 5.84605 9.86843 5.82491 10.0074 5.80846C10.038 5.80376 10.0663 5.80141 10.0969 5.79671C10.243 5.78026 10.389 5.76616 10.5351 5.75676C10.5775 5.75442 10.6222 5.74971 10.6646 5.74736C10.8107 5.73797 10.9567 5.73327 11.1028 5.72857C11.1452 5.72857 11.1876 5.72857 11.23 5.72857C11.3808 5.72857 11.5339 5.72857 11.6846 5.73092C11.7106 5.73092 11.7388 5.73327 11.7647 5.73327C11.9084 5.73797 12.0521 5.74737 12.1958 5.75676C12.2241 5.75676 12.25 5.76146 12.2783 5.76146C12.4338 5.77556 12.5892 5.79201 12.7447 5.81081C12.7777 5.81551 12.8107 5.82021 12.8436 5.82256C12.9991 5.8437 13.1522 5.8672 13.3054 5.8954C13.3336 5.9001 13.3595 5.9048 13.3854 5.91185C13.548 5.94239 13.7082 5.97529 13.8684 6.01288C18.8082 7.17598 22.2592 11.53 22.2592 16.6006C22.2592 17.6956 22.0967 18.7788 21.774 19.815C21.7269 19.9701 21.675 20.1205 21.6185 20.2732C21.6091 20.2967 21.602 20.3202 21.5926 20.3437C21.5384 20.4894 21.4819 20.6327 21.423 20.776C21.4112 20.8019 21.4018 20.8277 21.39 20.8536C21.3288 20.9969 21.2628 21.1426 21.1968 21.2836C21.1898 21.2977 21.1827 21.3141 21.1756 21.3282C21.1073 21.4692 21.0366 21.6078 20.9613 21.7441C20.9542 21.7559 20.9495 21.7676 20.9424 21.7817C20.867 21.9203 20.7869 22.059 20.7045 22.1953C20.6904 22.2188 20.6762 22.2423 20.6621 22.2658C20.5796 22.3997 20.4972 22.5313 20.41 22.6605C20.3959 22.6817 20.3818 22.7004 20.3676 22.7216C20.2758 22.8555 20.1815 22.9895 20.085 23.1187C20.085 23.1187 20.0826 23.121 20.0802 23.1234C19.9837 23.2526 19.8824 23.3795 19.7787 23.504C19.7693 23.5158 19.7599 23.5275 19.7505 23.5393L17.6304 19.8761L17.6845 19.7845L17.6657 19.7727C17.6916 19.721 17.7175 19.667 17.7411 19.6153C17.7764 19.5378 17.8141 19.4602 17.8471 19.3827C17.873 19.3239 17.8965 19.2652 17.9201 19.2065C17.9507 19.1289 17.9813 19.049 18.0096 18.9691C18.0308 18.908 18.052 18.8493 18.0709 18.7882C18.0968 18.7083 18.1203 18.6261 18.1439 18.5462C18.1604 18.4851 18.1792 18.424 18.1957 18.3629C18.2169 18.2783 18.2358 18.1961 18.2546 18.1115C18.2687 18.0504 18.2829 17.9917 18.2947 17.9306C18.3111 17.8413 18.3253 17.7543 18.3394 17.665C18.3488 17.6063 18.3583 17.5499 18.3653 17.4912C18.3771 17.3925 18.3865 17.2938 18.3936 17.1951C18.3983 17.1458 18.403 17.0988 18.4077 17.0494C18.4171 16.9014 18.4219 16.7534 18.4219 16.603C18.4219 16.4831 18.4195 16.3633 18.4124 16.2458C18.4124 16.2059 18.4054 16.1659 18.403 16.126C18.3983 16.0485 18.3936 15.9686 18.3842 15.891C18.3795 15.844 18.3724 15.797 18.3677 15.75C18.3583 15.6819 18.3512 15.6114 18.3418 15.5433C18.3347 15.4939 18.3253 15.4446 18.3159 15.3952C18.3041 15.3294 18.2947 15.266 18.2805 15.2002C18.2711 15.1485 18.257 15.0992 18.2452 15.0475C18.2311 14.9864 18.2169 14.9229 18.2028 14.8619C18.1886 14.8102 18.1745 14.7608 18.1604 14.7091C18.1439 14.6504 18.1274 14.5893 18.1086 14.5305C18.0921 14.4788 18.0756 14.4295 18.0591 14.3778C18.0402 14.3214 18.0214 14.2627 18.0002 14.2063C17.9813 14.1546 17.9625 14.1053 17.9413 14.0559C17.9201 13.9995 17.8989 13.9455 17.8753 13.8891C17.8541 13.8397 17.8306 13.7904 17.8094 13.741C17.7858 13.687 17.7623 13.633 17.7364 13.5813C17.7128 13.5319 17.6869 13.4826 17.6633 13.4356C17.6374 13.3839 17.6115 13.3322 17.5832 13.2805C17.5573 13.2312 17.5291 13.1842 17.5031 13.1372C17.4749 13.0878 17.4466 13.0361 17.416 12.9868C17.3877 12.9398 17.3571 12.8928 17.3288 12.8458C17.2982 12.7965 17.2676 12.7495 17.237 12.7025C17.2063 12.6555 17.1757 12.6108 17.1427 12.5662C17.1098 12.5192 17.0768 12.4746 17.0438 12.4276C17.0108 12.3829 16.9778 12.3383 16.9425 12.296C16.9072 12.2513 16.8742 12.2067 16.8389 12.1644C16.8035 12.1221 16.7682 12.0798 16.7328 12.0375C16.6975 11.9952 16.6598 11.9529 16.6221 11.9106C16.5844 11.8683 16.5467 11.8284 16.5091 11.7884C16.4714 11.7485 16.4313 11.7062 16.3936 11.6663C16.3536 11.6263 16.3159 11.5887 16.2758 11.5488C16.2358 11.5088 16.1958 11.4712 16.1534 11.4336C16.1133 11.396 16.0709 11.3584 16.0285 11.3209C15.9861 11.2833 15.9437 11.248 15.9013 11.2104C15.8589 11.1752 15.8165 11.1399 15.7717 11.1047C15.727 11.0694 15.6846 11.0342 15.6398 11.0013C15.5951 10.9684 15.5503 10.9332 15.5055 10.9003C15.4608 10.8674 15.4137 10.8345 15.3689 10.8016C15.3242 10.7687 15.277 10.7381 15.2299 10.7076C15.1828 10.677 15.1357 10.6465 15.0886 10.6159C15.0415 10.5854 14.9944 10.5572 14.9449 10.529C14.8954 10.5008 14.846 10.4726 14.7988 10.4444C14.7494 10.4162 14.7023 10.3904 14.6528 10.3645C14.6033 10.3387 14.5515 10.3128 14.4997 10.287C14.4502 10.2611 14.4007 10.2376 14.3489 10.2141C14.2971 10.1906 14.2453 10.1672 14.1911 10.1437C14.1393 10.1202 14.0898 10.099 14.038 10.0779C13.9838 10.0567 13.9296 10.0356 13.8754 10.0144C13.8236 9.99562 13.7718 9.97447 13.7199 9.95568C13.6658 9.93688 13.6092 9.91808 13.5527 9.89929C13.5009 9.88284 13.4467 9.86404 13.3949 9.84759C13.3383 9.83115 13.2818 9.8147 13.2229 9.79825C13.1687 9.78415 13.1169 9.7677 13.0627 9.75595C13.0038 9.74185 12.9449 9.72776 12.886 9.71601C12.8319 9.70426 12.7777 9.69251 12.7235 9.68077C12.6623 9.66902 12.6034 9.65962 12.5421 9.64787C12.4879 9.63847 12.4338 9.62907 12.3796 9.61967C12.3325 9.61262 12.2853 9.60793 12.2382 9.60088L12.2712 9.54214H11.6399L9.51508 5.8719C9.53864 5.8672 9.55984 5.86485 9.5834 5.86015L9.59517 5.8672ZM16.1439 20.2685C16.111 20.3108 16.0803 20.3531 16.045 20.3954C15.9979 20.4541 15.9484 20.5105 15.8989 20.5669C15.866 20.6045 15.833 20.6445 15.8 20.6797C15.7458 20.7384 15.6893 20.7949 15.6328 20.8536C15.6021 20.8841 15.5715 20.917 15.5409 20.9476C15.4655 21.0204 15.3901 21.0886 15.3124 21.1567C15.2982 21.1708 15.2818 21.1849 15.2676 21.1966C15.1734 21.2765 15.0792 21.3541 14.9802 21.4269C14.9496 21.4504 14.9166 21.4716 14.886 21.4927C14.8177 21.542 14.7494 21.5914 14.6787 21.6384C14.6387 21.6642 14.5986 21.6901 14.5562 21.7136C14.4926 21.7535 14.429 21.7935 14.3654 21.8311C14.3206 21.8569 14.2759 21.8804 14.2311 21.9039C14.1675 21.9368 14.1063 21.972 14.0403 22.0026C13.9932 22.0261 13.9437 22.0472 13.8966 22.0707C13.833 22.1013 13.7694 22.1295 13.7035 22.1553C13.654 22.1765 13.6045 22.1953 13.555 22.2141C13.4891 22.2399 13.4231 22.2634 13.3572 22.2869C13.3077 22.3057 13.2559 22.3221 13.2041 22.3386C13.1357 22.3597 13.0698 22.3809 13.0015 22.3997C12.9496 22.4138 12.8978 22.4279 12.846 22.442C12.7753 22.4584 12.7047 22.4749 12.634 22.4913C12.5822 22.5031 12.5327 22.5148 12.4809 22.5242C12.4055 22.5383 12.3301 22.5501 12.2547 22.5595C12.2053 22.5665 12.1581 22.5759 12.1087 22.5806C12.0239 22.59 11.9414 22.5971 11.8566 22.6041C11.8142 22.6065 11.7742 22.6135 11.7318 22.6159C11.6046 22.6229 11.4774 22.6276 11.3501 22.6276C11.2229 22.6276 11.0934 22.6229 10.9685 22.6159C10.9261 22.6135 10.8861 22.6088 10.8437 22.6041C10.7589 22.5971 10.6741 22.59 10.5916 22.5806C10.5422 22.5736 10.4927 22.5665 10.4456 22.5595C10.3702 22.5477 10.2948 22.536 10.2218 22.5242C10.17 22.5148 10.1181 22.5031 10.0687 22.4913C9.99799 22.4772 9.92732 22.4608 9.85901 22.4443C9.80718 22.4302 9.75536 22.4161 9.70354 22.402C9.63522 22.3832 9.56926 22.3644 9.50095 22.3409C9.44912 22.3245 9.3973 22.3081 9.34783 22.2893C9.28187 22.2658 9.21591 22.2423 9.15231 22.2164C9.10284 22.1976 9.05101 22.1765 9.00154 22.1553C8.93794 22.1295 8.87434 22.0989 8.81074 22.0707C8.76127 22.0472 8.71415 22.0261 8.66704 22.0026C8.60344 21.972 8.53983 21.9368 8.47859 21.9039C8.43383 21.8804 8.38671 21.8546 8.34196 21.8287C8.27835 21.7911 8.21475 21.7512 8.15115 21.7136C8.1111 21.6877 8.0687 21.6642 8.02866 21.636C7.95799 21.589 7.88967 21.5397 7.82136 21.4904C7.79073 21.4692 7.75775 21.4481 7.72949 21.4246C7.63055 21.3517 7.53632 21.2742 7.44209 21.1943C7.42325 21.1778 7.40676 21.1614 7.38791 21.145C7.31253 21.0792 7.23951 21.0134 7.16884 20.9452C7.13586 20.9147 7.10523 20.8818 7.07461 20.8489C7.01807 20.7925 6.96389 20.7361 6.90971 20.6774C6.87674 20.6398 6.84375 20.6022 6.81077 20.5622C6.7613 20.5058 6.71419 20.4494 6.66708 20.3907C6.6341 20.3484 6.60112 20.3061 6.56814 20.2638C6.53987 20.2262 6.5116 20.1886 6.48334 20.151C9.52921 18.5861 13.1946 18.5885 16.2334 20.1487C16.2052 20.1863 16.1769 20.2262 16.1486 20.2638L16.1439 20.2685ZM12.5657 10.7029C12.5798 10.7052 12.5939 10.7099 12.6081 10.7123C12.6882 10.7287 12.7659 10.7475 12.846 10.7663C12.8766 10.7734 12.9072 10.7828 12.9379 10.7922C12.9991 10.8086 13.0604 10.8251 13.1193 10.8439C13.1546 10.8556 13.1876 10.8674 13.2229 10.8768C13.2771 10.8956 13.3336 10.912 13.3878 10.9332C13.4231 10.9449 13.4585 10.959 13.4962 10.9731C13.548 10.9919 13.5998 11.013 13.6516 11.0342C13.687 11.0483 13.7223 11.0647 13.7576 11.0788C13.8095 11.1 13.8589 11.1235 13.9108 11.147C13.9461 11.1634 13.9814 11.1799 14.0144 11.1963C14.0639 11.2222 14.1157 11.2457 14.1652 11.2739C14.1981 11.2903 14.2311 11.3091 14.2641 11.3256C14.3159 11.3538 14.3654 11.3819 14.4149 11.4125C14.4455 11.4313 14.4761 11.4477 14.5044 11.4665C14.5586 11.4994 14.6127 11.5347 14.6646 11.5699C14.6881 11.5864 14.714 11.6005 14.7376 11.6169C14.8106 11.6663 14.8836 11.718 14.9567 11.772C14.959 11.772 14.9614 11.7743 14.9637 11.7767C15.0391 11.8331 15.1121 11.8895 15.1828 11.9482C15.2017 11.9647 15.2229 11.9811 15.2417 11.9976C15.2935 12.0399 15.343 12.0845 15.3925 12.1268C15.4184 12.1503 15.4419 12.1738 15.4679 12.1949C15.5103 12.2349 15.5527 12.2748 15.5951 12.3148C15.621 12.3406 15.6469 12.3665 15.6728 12.3923C15.7128 12.4323 15.7505 12.4722 15.7882 12.5122C15.8141 12.5403 15.84 12.5685 15.8636 12.5967C15.8989 12.6367 15.9366 12.679 15.972 12.7213C15.9955 12.7495 16.0214 12.78 16.045 12.8106C16.0803 12.8529 16.1133 12.8975 16.1463 12.9398C16.1698 12.9703 16.1934 13.0009 16.2146 13.0314C16.2476 13.0761 16.2806 13.1231 16.3112 13.1677C16.3324 13.1983 16.3536 13.2288 16.3748 13.2594C16.4078 13.3087 16.4384 13.358 16.4714 13.4097C16.4902 13.4379 16.5067 13.4661 16.5255 13.4943C16.5609 13.5554 16.5962 13.6165 16.6316 13.6776C16.6433 13.6964 16.6551 13.7152 16.6645 13.7363C16.7093 13.8186 16.7517 13.9008 16.7917 13.9854C16.8012 14.0042 16.8082 14.0207 16.8153 14.0395C16.8459 14.1052 16.8765 14.1734 16.9072 14.2415C16.9213 14.2721 16.9331 14.3026 16.9449 14.3332C16.9684 14.3896 16.9896 14.4436 17.0108 14.5023C17.0249 14.5376 17.0367 14.5728 17.0485 14.6081C17.0674 14.6621 17.0862 14.7138 17.1027 14.7679C17.1145 14.8055 17.1262 14.8431 17.138 14.8807C17.1545 14.9347 17.1686 14.9864 17.1828 15.0404C17.1922 15.0804 17.204 15.118 17.2134 15.1579C17.2275 15.212 17.2393 15.266 17.2511 15.32C17.2605 15.36 17.2676 15.3999 17.277 15.4399C17.2888 15.4939 17.2982 15.5503 17.3076 15.6067C17.3147 15.6467 17.3218 15.6866 17.3265 15.7265C17.3359 15.7853 17.343 15.8417 17.3477 15.9004C17.3524 15.938 17.3571 15.9756 17.3618 16.0132C17.3689 16.0766 17.3736 16.1424 17.3759 16.2082C17.3759 16.2411 17.3807 16.274 17.383 16.3046C17.3877 16.4033 17.3901 16.5019 17.3901 16.6006C17.3901 16.7181 17.3854 16.8356 17.3783 16.9531C17.3783 16.986 17.3736 17.0165 17.3712 17.0494C17.3642 17.1481 17.3547 17.2445 17.343 17.3408C17.3406 17.3619 17.3383 17.3854 17.3359 17.4066C17.3194 17.5217 17.3006 17.6368 17.2794 17.7496C17.2746 17.7778 17.2676 17.806 17.2605 17.8342C17.2417 17.9259 17.2205 18.0152 17.1969 18.1068C17.1898 18.135 17.1828 18.1655 17.1734 18.1937C17.1427 18.3042 17.1098 18.4169 17.0721 18.525C17.065 18.5438 17.0579 18.5626 17.0509 18.5814C17.0297 18.6425 17.0061 18.7013 16.9825 18.7624L12.2877 10.6488C12.3796 10.6629 12.4714 10.6794 12.561 10.6982L12.5657 10.7029ZM15.8306 18.8328C12.9897 17.6627 9.76478 17.6556 6.91442 18.8211L11.369 11.1258L15.8306 18.8328ZM10.4479 10.6512L5.69419 18.8657C5.42329 18.1702 5.2843 17.423 5.2843 16.6688C5.2843 13.6306 7.5269 11.1023 10.4503 10.6512H10.4479ZM11.3525 27.4821C8.3184 27.4821 5.50102 26.2696 3.41861 24.068C2.42923 23.02 1.67071 21.8193 1.16188 20.487H5.35262L5.65179 21.0016L5.72481 20.8771C5.73659 20.8935 5.75073 20.91 5.76486 20.9264C5.80726 20.9828 5.85202 21.0369 5.89678 21.0909C5.94625 21.152 5.99807 21.2131 6.04989 21.2718C6.09701 21.3235 6.14412 21.3776 6.19124 21.4269C6.24542 21.4857 6.2996 21.542 6.35613 21.5961C6.4056 21.6454 6.45507 21.6948 6.50689 21.7418C6.56343 21.7958 6.62232 21.8475 6.67886 21.8992C6.73068 21.9462 6.78486 21.9908 6.83669 22.0355C6.89558 22.0848 6.95683 22.1342 7.01807 22.1812C7.07225 22.2235 7.12879 22.2658 7.18297 22.3057C7.24657 22.3504 7.31017 22.395 7.37378 22.4396C7.43031 22.4796 7.48921 22.5172 7.54574 22.5548C7.6117 22.5971 7.67766 22.637 7.74597 22.6769C7.80487 22.7122 7.86376 22.7474 7.92501 22.7803C7.99332 22.8179 8.06399 22.8532 8.1323 22.8884C8.19355 22.919 8.2548 22.9519 8.31604 22.9801C8.38671 23.013 8.45974 23.0435 8.53277 23.0764C8.59637 23.1022 8.65762 23.1304 8.72122 23.1563C8.7966 23.1868 8.87198 23.2127 8.94737 23.2385C9.01097 23.262 9.07457 23.2855 9.13817 23.3067C9.21591 23.3325 9.296 23.3537 9.37374 23.3772C9.43734 23.396 9.50095 23.4148 9.56455 23.4312C9.647 23.4524 9.72945 23.4688 9.8119 23.4876C9.8755 23.5017 9.93675 23.5158 10.0003 23.5275C10.0875 23.544 10.177 23.5581 10.2665 23.5698C10.3254 23.5792 10.3843 23.591 10.4456 23.598C10.5445 23.6098 10.6458 23.6192 10.7471 23.6262C10.7966 23.6309 10.846 23.638 10.8979 23.6403C11.0486 23.6497 11.2017 23.6544 11.3549 23.6544C11.508 23.6544 11.6517 23.6497 11.8001 23.6403C11.8495 23.638 11.8967 23.6309 11.9438 23.6286C12.0427 23.6215 12.1417 23.6121 12.2382 23.6004C12.2948 23.5933 12.3513 23.5839 12.4078 23.5769C12.495 23.5628 12.5845 23.551 12.6693 23.5346C12.7282 23.5228 12.7871 23.5111 12.846 23.4993C12.9284 23.4805 13.0109 23.4641 13.0933 23.443C13.1522 23.4289 13.2111 23.4124 13.27 23.396C13.3501 23.3725 13.4302 23.349 13.5103 23.3255C13.5692 23.3067 13.6257 23.2879 13.6846 23.2691C13.7647 23.2409 13.8424 23.2127 13.9202 23.1821C13.9767 23.161 14.0309 23.1398 14.0874 23.1163C14.1675 23.0834 14.2453 23.0482 14.3254 23.0106C14.3772 22.9871 14.429 22.9636 14.4785 22.9401C14.5633 22.8978 14.6481 22.8532 14.7305 22.8085C14.7729 22.785 14.8153 22.7639 14.8554 22.7404C14.9802 22.6699 15.1004 22.5971 15.2205 22.5195C15.3406 22.442 15.4561 22.3597 15.5691 22.2752C15.6068 22.247 15.6422 22.2164 15.6799 22.1882C15.7552 22.1295 15.8306 22.0707 15.906 22.0073C15.9484 21.972 15.9908 21.9345 16.0309 21.8969C16.0968 21.8381 16.1628 21.7794 16.2264 21.7183C16.2688 21.6783 16.3112 21.636 16.3536 21.5937C16.4148 21.5326 16.4737 21.4716 16.5303 21.4105C16.5727 21.3658 16.6127 21.3212 16.6528 21.2742C16.7093 21.2107 16.7635 21.1449 16.8176 21.0792C16.8577 21.0322 16.8954 20.9828 16.9331 20.9358C16.9543 20.91 16.9755 20.8841 16.9943 20.8583L17.0249 20.91L19.0131 24.3476C16.959 26.3754 14.2523 27.4868 11.3454 27.4868L11.3525 27.4821ZM26.6219 19.8644C25.9741 22.8978 24.4524 25.6305 22.2121 27.7922L20.3017 24.4933C20.3017 24.4933 20.3205 24.4721 20.3299 24.4604C20.4572 24.3147 20.5844 24.1667 20.7045 24.0139C20.7069 24.0116 20.7092 24.0069 20.7116 24.0045C20.8341 23.8518 20.9518 23.6944 21.0649 23.5346C21.0767 23.5181 21.0885 23.5017 21.1003 23.4852C21.2086 23.3325 21.3123 23.1774 21.4136 23.0177C21.4277 22.9942 21.4442 22.9707 21.4583 22.9472C21.5573 22.7921 21.6491 22.6347 21.741 22.4772C21.7575 22.449 21.7716 22.4232 21.7881 22.395C21.8776 22.2376 21.9624 22.0754 22.0425 21.9133C22.0567 21.8851 22.0708 21.8569 22.0849 21.8287C22.165 21.6642 22.2427 21.4998 22.3158 21.3306C22.3276 21.3047 22.337 21.2812 22.3488 21.2554C22.4218 21.0839 22.4925 20.91 22.5584 20.7338C22.5655 20.7173 22.5702 20.6985 22.5773 20.6821C22.6456 20.4964 22.7092 20.3108 22.7681 20.1228C23.1191 18.9856 23.2981 17.8037 23.2981 16.603C23.2981 11.0506 19.5196 6.2831 14.1086 5.00956C14.0003 4.98372 13.8919 4.96022 13.7812 4.93672C13.7459 4.92967 13.7105 4.92262 13.6752 4.91558C13.6022 4.90148 13.5268 4.88737 13.4514 4.87328C13.409 4.86623 13.369 4.85918 13.3266 4.85213C13.2582 4.84038 13.1876 4.82864 13.1193 4.81924C13.0769 4.81219 13.0344 4.80749 12.992 4.80279C12.9237 4.79339 12.8531 4.78399 12.7847 4.77694C12.7423 4.77224 12.6999 4.76754 12.6575 4.76284C12.5869 4.75579 12.5162 4.74874 12.4455 4.74169C12.4055 4.73699 12.3631 4.73465 12.323 4.7323C12.25 4.7276 12.177 4.72055 12.104 4.71585C12.0639 4.7135 12.0262 4.71115 11.9862 4.7088C11.9108 4.7041 11.8354 4.70175 11.76 4.6994C11.7247 4.6994 11.687 4.6994 11.6517 4.69705C11.5716 4.69705 11.4938 4.6947 11.4137 4.6947C11.3808 4.6947 11.3478 4.6947 11.3148 4.6947C11.23 4.6947 11.1476 4.6947 11.0628 4.6994C11.0345 4.6994 11.0062 4.6994 10.978 4.6994C10.8884 4.70175 10.7989 4.70645 10.7094 4.71115C10.6858 4.71115 10.6646 4.71115 10.6411 4.7135C10.5422 4.7182 10.4432 4.72759 10.3443 4.73464C10.3301 4.73464 10.316 4.73465 10.3019 4.737C9.95795 4.76754 9.61637 4.80984 9.27716 4.87093C9.27245 4.87093 9.27009 4.87093 9.26538 4.87093C9.1688 4.88738 9.07222 4.90617 8.97563 4.92497L7.06519 1.62364C8.45267 1.22889 9.89199 1.02917 11.3501 1.02917C13.025 1.02917 14.6716 1.29233 16.2476 1.81162C22.6574 3.9193 26.9635 9.86404 26.9635 16.6006C26.9635 17.7003 26.8481 18.7976 26.6196 19.8597L26.6219 19.8644Z" fill="white"/>
</svg>
