<svg width="185" height="38" viewBox="0 0 185 38" fill="none" xmlns="http://www.w3.org/2000/svg">
<path d="M60.5452 29.7117L55.7692 15.9592L50.8933 29.7117H47.0859L53.8044 11.8242H57.9338L64.6023 29.7117H60.5477H60.5452ZM51.812 22.8617H59.7239L60.72 25.8767H50.7185L51.812 22.8617Z" fill="#1A497B"/>
<path d="M69.2015 29.7117H65.7188V11.8242H69.2015V29.7117Z" fill="#1A497B"/>
<path d="M79.6514 24.1043V16.4068H83.0843V29.7093H79.9235V27.9643C79.5765 28.5468 79.0522 29.0243 78.3556 29.3968C77.6591 29.7693 76.8876 29.9568 76.0413 29.9568C75.1949 29.9568 74.3735 29.7743 73.677 29.4093C72.9804 29.0443 72.4336 28.4843 72.0342 27.7268C71.6372 26.9718 71.4375 26.0193 71.4375 24.8743V16.4043H74.8953V24.2018C74.8953 25.1318 75.1075 25.8143 75.5295 26.2443C75.9514 26.6768 76.5131 26.8918 77.2097 26.8918C77.6241 26.8918 78.0186 26.7843 78.3906 26.5668C78.7626 26.3518 79.0672 26.0318 79.2994 25.6068C79.5316 25.1843 79.6489 24.6818 79.6489 24.0993L79.6514 24.1043Z" fill="#1A497B"/>
<path d="M88.9109 29.7126H85.4531V16.4102H88.6388V18.3027C89.1207 17.6227 89.6849 17.0952 90.3315 16.7202C90.9782 16.3477 91.7421 16.1602 92.6209 16.1602C93.4997 16.1602 94.3261 16.3626 94.9977 16.7701C95.6693 17.1776 96.1711 17.7626 96.5032 18.5276C97.035 17.7976 97.6466 17.2202 98.3432 16.7952C99.0398 16.3727 99.8861 16.1602 100.88 16.1602C102.223 16.1602 103.309 16.5876 104.138 17.4426C104.967 18.2976 105.381 19.5227 105.381 21.1177V29.7126H101.948V22.2126C101.948 21.2651 101.754 20.5302 101.364 20.0077C100.975 19.4852 100.398 19.2227 99.634 19.2227C99.1871 19.2227 98.7726 19.3426 98.3906 19.5826C98.0087 19.8226 97.7066 20.1677 97.4819 20.6177C97.2572 21.0677 97.1448 21.6227 97.1448 22.2877V29.7126H93.712V22.2126C93.712 21.2651 93.5172 20.5302 93.1278 20.0077C92.7383 19.4852 92.1616 19.2227 91.3976 19.2227C90.9332 19.2227 90.5113 19.3426 90.1293 19.5826C89.7473 19.8226 89.4502 20.1677 89.233 20.6177C89.0183 21.0652 88.9085 21.6227 88.9085 22.2877V29.7126H88.9109Z" fill="#1A497B"/>
<path d="M111.052 22.4626V29.7126H107.594V16.4102H110.779V18.3027C111.276 17.6377 111.86 17.1152 112.535 16.7327C113.206 16.3502 113.983 16.1602 114.861 16.1602C116.205 16.1602 117.291 16.5876 118.12 17.4426C118.948 18.2976 119.363 19.5227 119.363 21.1177V29.7126H115.93V22.2877C115.93 21.2902 115.735 20.5302 115.346 20.0077C114.956 19.4852 114.372 19.2227 113.591 19.2227C113.126 19.2227 112.699 19.3426 112.31 19.5826C111.92 19.8226 111.613 20.1802 111.389 20.6552C111.164 21.1277 111.052 21.7302 111.052 22.4602V22.4626Z" fill="#1A497B"/>
<path d="M125.604 13.3171C125.604 13.8996 125.392 14.3846 124.97 14.7746C124.548 15.1646 123.986 15.3596 123.289 15.3596C122.593 15.3596 122.059 15.1646 121.634 14.7746C121.212 14.3846 121 13.8996 121 13.3171C121 12.7021 121.212 12.1996 121.634 11.8096C122.056 11.4196 122.608 11.2246 123.289 11.2246C123.971 11.2246 124.545 11.4196 124.97 11.8096C125.392 12.1996 125.604 12.7021 125.604 13.3171ZM125.057 29.7096H121.599V16.4071H125.057V29.7096Z" fill="#1A497B"/>
<path d="M135.931 29.7117H132.148V11.8242H135.931V18.8742H143.668V11.8242H147.45V29.7117H143.668V22.1392H135.931V29.7117Z" fill="#1A497B"/>
<path d="M158.175 24.1043V16.4068H161.608V29.7093H158.447V27.9643C158.1 28.5468 157.576 29.0243 156.879 29.3968C156.183 29.7693 155.411 29.9568 154.565 29.9568C153.718 29.9568 152.897 29.7743 152.2 29.4093C151.504 29.0443 150.957 28.4843 150.558 27.7268C150.161 26.9718 149.961 26.0193 149.961 24.8743V16.4043H153.419V24.2018C153.419 25.1318 153.631 25.8143 154.053 26.2443C154.475 26.6768 155.037 26.8918 155.733 26.8918C156.148 26.8918 156.542 26.7843 156.914 26.5668C157.286 26.3518 157.591 26.0318 157.823 25.6068C158.055 25.1843 158.172 24.6818 158.172 24.0993L158.175 24.1043Z" fill="#1A497B"/>
<path d="M177.231 23.0592C177.231 24.3542 176.986 25.5267 176.497 26.5717C176.007 27.6192 175.323 28.4442 174.445 29.0517C173.566 29.6592 172.53 29.9617 171.334 29.9617C170.487 29.9617 169.708 29.7717 168.994 29.3892C168.28 29.0067 167.666 28.4767 167.154 27.7942V29.7117H163.969V11.8242H167.427V18.1267C167.923 17.4792 168.5 16.9892 169.157 16.6567C169.811 16.3242 170.537 16.1592 171.334 16.1592C172.527 16.1592 173.563 16.4592 174.445 17.0567C175.323 17.6542 176.007 18.4767 176.497 19.5242C176.986 20.5692 177.231 21.7492 177.231 23.0617V23.0592ZM173.673 23.0592C173.673 21.7792 173.366 20.8217 172.752 20.1817C172.138 19.5417 171.409 19.2217 170.562 19.2217C169.998 19.2217 169.479 19.3617 169.007 19.6442C168.535 19.9267 168.156 20.3492 167.876 20.9142C167.594 21.4792 167.454 22.1767 167.454 23.0067C167.454 23.8367 167.591 24.5392 167.863 25.1117C168.138 25.6842 168.515 26.1217 168.994 26.4192C169.476 26.7192 169.998 26.8667 170.562 26.8667C171.409 26.8667 172.138 26.5417 172.752 25.8942C173.366 25.2467 173.673 24.2992 173.673 23.0542V23.0592Z" fill="#1A497B"/>
<path d="M21.9727 13.8477L15.6637 24.7926C15.042 23.7201 14.6875 22.4751 14.6875 21.1451C14.6875 17.1151 17.9481 13.8477 21.9727 13.8477Z" fill="#A4D2FE"/>
<path d="M39.6927 21.0733C39.6927 22.3483 39.5579 23.5933 39.3033 24.7933C38.5268 28.4533 36.6219 31.6958 33.9755 34.1383C33.8631 34.2408 33.6859 34.2133 33.6085 34.0808L31.0894 29.7108C32.3901 28.3283 33.3838 26.6533 33.958 24.7933C34.32 23.6183 34.5172 22.3683 34.5172 21.0733C34.5172 15.1183 30.3903 10.1308 24.8428 8.82078C23.9141 8.60078 22.9429 8.48328 21.9442 8.48328C20.9456 8.48328 19.9744 8.60078 19.0456 8.82078L16.524 4.44828C16.4491 4.31578 16.5116 4.14828 16.6564 4.10328C18.3266 3.58078 20.1017 3.30078 21.9417 3.30078C23.8866 3.30078 25.7591 3.61328 27.5092 4.19328C34.5871 6.53078 39.6927 13.2058 39.6927 21.0758V21.0733Z" fill="#1A497B"/>
<path d="M28.1286 24.794C26.8653 26.894 24.5684 28.299 21.942 28.299C19.3155 28.299 17.0186 26.894 15.7578 24.794L16.0374 24.6415C19.8148 22.564 24.4061 22.6215 28.1311 24.794H28.1286Z" fill="#A4D2FE"/>
<path d="M29.1528 21.0727C29.1528 22.3902 28.8007 23.6227 28.1866 24.6852L21.9375 13.8477C25.9221 13.8477 29.1528 17.0827 29.1528 21.0727Z" fill="#A4D2FE"/>
<path d="M34.5107 21.0724C34.5107 22.3674 34.3159 23.6149 33.9514 24.7924C33.3797 26.6524 32.3835 28.3274 31.0828 29.7099L28.2491 24.7924L28.1867 24.6849C28.8009 23.6224 29.1529 22.3874 29.1529 21.0724C29.1529 17.0799 25.9223 13.8474 21.9376 13.8474L19.0391 8.81992C19.9678 8.59992 20.939 8.48242 21.9376 8.48242C22.9363 8.48242 23.9075 8.59992 24.8362 8.81992C30.3837 10.1299 34.5107 15.1174 34.5107 21.0724Z" fill="#2E90FA"/>
<path d="M31.0873 29.713C28.7954 32.1455 25.5448 33.663 21.9397 33.663C18.3345 33.663 15.0864 32.143 12.7945 29.7105C11.5662 28.4055 10.6125 26.8405 10.0283 25.1055C9.97584 24.953 10.0932 24.793 10.2555 24.793H15.7555C17.0188 26.893 19.3132 28.298 21.9397 28.298C24.5661 28.298 26.863 26.893 28.1263 24.793H28.2511L31.0848 29.7105L31.0873 29.713Z" fill="#2061A5"/>
</svg>
