<svg width="15" height="15" viewBox="0 0 15 15" fill="none" xmlns="http://www.w3.org/2000/svg">
<path d="M7.53566 0.68993L6.91694 1.30865C6.7705 1.45509 6.7705 1.69252 6.91694 1.83899L11.7648 6.68677H1.095C0.887907 6.68677 0.720001 6.85468 0.720001 7.06177V7.93677C0.720001 8.14387 0.887907 8.31177 1.095 8.31177H11.7648L6.91694 13.1596C6.7705 13.306 6.7705 13.5435 6.91694 13.6899L7.53566 14.3086C7.6821 14.4551 7.91953 14.4551 8.066 14.3086L14.6102 7.76446C14.7566 7.61802 14.7566 7.38059 14.6102 7.23412L8.06597 0.68993C7.91953 0.543461 7.6821 0.543461 7.53566 0.68993Z" fill="#AD0F7C"/>
</svg>
