<svg width="60" height="60" viewBox="0 0 60 60" fill="none" xmlns="http://www.w3.org/2000/svg">
<path d="M12.8571 60H19.5238C20.6601 59.9988 21.7494 59.5468 22.5529 58.7434C23.3564 57.9399 23.8083 56.8505 23.8095 55.7143V40.4762C23.8083 39.3399 23.3564 38.2506 22.5529 37.4471C21.7494 36.6436 20.6601 36.1917 19.5238 36.1905H15.7143C15.3355 36.1901 14.9724 36.0394 14.7046 35.7716C14.4368 35.5038 14.2861 35.1407 14.2857 34.7619V25.2381C14.2861 24.8593 14.4368 24.4962 14.7046 24.2284C14.9724 23.9606 15.3355 23.8099 15.7143 23.8095H19.5238C20.6601 23.8083 21.7494 23.3564 22.5529 22.5529C23.3564 21.7494 23.8083 20.6601 23.8095 19.5238V4.28571C23.8083 3.14945 23.3564 2.06008 22.5529 1.25662C21.7494 0.453165 20.6601 0.00123776 19.5238 0H12.8571C9.44838 0.00379883 6.18033 1.35961 3.76997 3.76997C1.35961 6.18033 0.00379883 9.44838 0 12.8571V47.1429C0.00379883 50.5516 1.35961 53.8197 3.76997 56.23C6.18033 58.6404 9.44838 59.9962 12.8571 60ZM2.85714 12.8571C2.86012 10.2059 3.91464 7.66408 5.78936 5.78936C7.66408 3.91464 10.2059 2.86012 12.8571 2.85714H19.5238C19.9026 2.85756 20.2657 3.0082 20.5335 3.27602C20.8013 3.54384 20.952 3.90696 20.9524 4.28571V19.5238C20.952 19.9026 20.8013 20.2657 20.5335 20.5335C20.2657 20.8013 19.9026 20.952 19.5238 20.9524H15.7143C14.578 20.9536 13.4887 21.4055 12.6852 22.209C11.8817 23.0125 11.4298 24.1018 11.4286 25.2381V34.7619C11.4298 35.8982 11.8817 36.9875 12.6852 37.791C13.4887 38.5945 14.578 39.0464 15.7143 39.0476H19.5238C19.9026 39.048 20.2657 39.1987 20.5335 39.4665C20.8013 39.7343 20.952 40.0974 20.9524 40.4762V55.7143C20.952 56.093 20.8013 56.4562 20.5335 56.724C20.2657 56.9918 19.9026 57.1424 19.5238 57.1429H12.8571C10.2059 57.1399 7.66408 56.0854 5.78936 54.2106C3.91464 52.3359 2.86012 49.7941 2.85714 47.1429V12.8571Z" fill="#0A102F"/>
<path d="M32.3828 10.952C32.3828 11.3309 32.5333 11.6942 32.8013 11.9621C33.0692 12.23 33.4325 12.3806 33.8114 12.3806H41.4304C41.8093 12.3806 42.1727 12.2301 42.4406 11.9622C42.7085 11.6943 42.859 11.3309 42.859 10.952C42.859 10.5731 42.7085 10.2098 42.4406 9.94186C42.1727 9.67395 41.8093 9.52344 41.4304 9.52344H33.8114C33.4325 9.52346 33.0692 9.67397 32.8013 9.94188C32.5333 10.2098 32.3828 10.5731 32.3828 10.952Z" fill="#0A102F"/>
<path d="M36.8347 1.14416L30.2369 4.95368C29.909 5.14323 29.6699 5.45522 29.572 5.82105C29.4741 6.18688 29.5255 6.57661 29.7149 6.90456C29.9042 7.23251 30.2161 7.47184 30.5819 7.56993C30.9476 7.66802 31.3374 7.61684 31.6655 7.42765L38.2633 3.61812C38.5911 3.42857 38.8303 3.11659 38.9282 2.75076C39.0261 2.38493 38.9747 1.99519 38.7853 1.66724C38.5959 1.33929 38.2841 1.09996 37.9183 1.00187C37.5525 0.903786 37.1628 0.954965 36.8347 1.14416Z" fill="#0A102F"/>
<path d="M30.2369 16.9521L36.8347 20.7616C37.1628 20.9508 37.5525 21.002 37.9183 20.9039C38.2841 20.8058 38.5959 20.5665 38.7853 20.2385C38.9747 19.9106 39.0261 19.5209 38.9282 19.155C38.8303 18.7892 38.5911 18.4772 38.2633 18.2877L31.6655 14.4781C31.3374 14.2889 30.9476 14.2378 30.5819 14.3359C30.2161 14.4339 29.9042 14.6733 29.7149 15.0012C29.5255 15.3292 29.4741 15.7189 29.572 16.0847C29.6699 16.4506 29.909 16.7626 30.2369 16.9521Z" fill="#0A102F"/>
<path d="M56.6687 30.4766H26.1925C25.9102 30.4771 25.6344 30.5612 25.3998 30.7183C25.1653 30.8753 24.9825 31.0983 24.8744 31.3591C24.7664 31.6199 24.738 31.9069 24.7928 32.1838C24.8476 32.4607 24.9832 32.7152 25.1824 32.9152L30.4782 38.2109V56.667C30.4793 57.5508 30.8308 58.398 31.4557 59.0229C32.0806 59.6478 32.9278 59.9993 33.8115 60.0004H56.6687C57.5524 59.9993 58.3996 59.6478 59.0245 59.0229C59.6494 58.398 60.0009 57.5508 60.002 56.667V33.8099C60.0009 32.9262 59.6494 32.0789 59.0245 31.4541C58.3996 30.8292 57.5524 30.4776 56.6687 30.4766ZM44.5946 53.01C44.3774 53.0162 44.1612 52.9783 43.959 52.8986C43.7568 52.819 43.5729 52.6992 43.4182 52.5466C43.2635 52.3939 43.1413 52.2116 43.059 52.0105C42.9767 51.8094 42.9359 51.5937 42.9392 51.3764C42.9359 51.0496 43.0298 50.7292 43.2089 50.4559C43.388 50.1825 43.6442 49.9685 43.9451 49.8409C44.2459 49.7134 44.5779 49.678 44.8989 49.7394C45.2199 49.8007 45.5154 49.956 45.748 50.1856C45.9806 50.4151 46.1399 50.7086 46.2055 51.0287C46.2711 51.3489 46.2402 51.6813 46.1166 51.9838C45.9931 52.2864 45.7825 52.5454 45.5115 52.7281C45.2406 52.9108 44.9215 53.0089 44.5947 53.01H44.5946ZM45.8465 45.7142L45.5963 47.3037H43.7557C43.5435 45.2237 43.5595 45.5213 43.5595 45.3436C43.5595 43.4392 46.7831 43.1549 46.7831 40.8031C46.7763 40.5583 46.7186 40.3176 46.6135 40.0964C46.5084 39.8752 46.3583 39.6783 46.1728 39.5184C45.9873 39.3586 45.7705 39.2391 45.5362 39.1678C45.302 39.0965 45.0554 39.0749 44.8123 39.1043C44.19 39.0877 43.5748 39.24 43.0321 39.5452C42.496 39.8469 42.3795 39.986 42.1551 39.986C42.0391 39.9929 41.9237 39.9656 41.823 39.9076C41.7223 39.8496 41.6409 39.7634 41.5887 39.6596L40.8809 38.5379C42.0155 37.4905 43.5083 36.9177 45.0522 36.9373C47.4724 36.9373 49.2766 38.2933 49.2766 40.6505C49.2766 43.9409 46.0609 44.3396 45.8465 45.7142Z" fill="#2E90FA"/>
</svg>
