<svg width="65" height="60" viewBox="0 0 65 60" fill="none" xmlns="http://www.w3.org/2000/svg">
<path d="M46.2735 30.5107C45.8689 30.5107 45.4809 30.6715 45.1948 30.9575C44.9087 31.2436 44.748 31.6316 44.748 32.0362V47.2912C44.7475 47.6957 44.5867 48.0834 44.3007 48.3694C44.0147 48.6554 43.6269 48.8163 43.2225 48.8167H19.8315C19.458 48.8167 19.0975 48.9538 18.8185 49.2021L12.204 55.0811V50.3422C12.204 49.9376 12.0432 49.5496 11.7572 49.2635C11.4711 48.9775 11.0831 48.8167 10.6785 48.8167H4.5765C4.17205 48.8163 3.78429 48.6554 3.49829 48.3694C3.2123 48.0834 3.05144 47.6957 3.051 47.2912V12.7132C3.05144 12.3088 3.2123 11.921 3.49829 11.635C3.78429 11.349 4.17205 11.1882 4.5765 11.1877H25.9335C26.3381 11.1877 26.7261 11.027 27.0122 10.7409C27.2983 10.4548 27.459 10.0668 27.459 9.66222C27.459 9.25763 27.2983 8.86961 27.0122 8.58353C26.7261 8.29744 26.3381 8.13672 25.9335 8.13672H4.5765C3.36314 8.13804 2.19986 8.62063 1.34189 9.47861C0.483915 10.3366 0.00132443 11.4999 0 12.7132V47.2912C0.00132175 48.5046 0.483912 49.6678 1.34189 50.5258C2.19986 51.3838 3.36314 51.8664 4.5765 51.8677H9.153V58.4782C9.15397 58.7718 9.23954 59.0589 9.39946 59.3052C9.55938 59.5514 9.78687 59.7463 10.0547 59.8666C10.3225 59.9869 10.6194 60.0275 10.9097 59.9834C11.1999 59.9394 11.4714 59.8127 11.6915 59.6184L20.4115 51.8677H43.2225C44.4358 51.8664 45.5991 51.3838 46.4571 50.5258C47.3151 49.6678 47.7977 48.5046 47.799 47.2912V32.0362C47.799 31.6316 47.6382 31.2436 47.3521 30.9575C47.0661 30.6715 46.6781 30.5107 46.2735 30.5107Z" fill="#0A102F"/>
<path d="M7.62706 19.3225H17.7971C18.2016 19.3225 18.5897 19.1618 18.8757 18.8757C19.1618 18.5896 19.3226 18.2016 19.3226 17.797C19.3226 17.3924 19.1618 17.0044 18.8757 16.7183C18.5897 16.4322 18.2016 16.2715 17.7971 16.2715H7.62706C7.22247 16.2715 6.83446 16.4322 6.54837 16.7183C6.26228 17.0044 6.10156 17.3924 6.10156 17.797C6.10156 18.2016 6.26228 18.5896 6.54837 18.8757C6.83446 19.1618 7.22247 19.3225 7.62706 19.3225Z" fill="#0A102F"/>
<path d="M40.1707 40.6797H31.0177C30.6131 40.6797 30.2251 40.8404 29.939 41.1265C29.6529 41.4126 29.4922 41.8006 29.4922 42.2052C29.4922 42.6098 29.6529 42.9978 29.939 43.2839C30.2251 43.57 30.6131 43.7307 31.0177 43.7307H40.1707C40.5753 43.7307 40.9633 43.57 41.2494 43.2839C41.5355 42.9978 41.6962 42.6098 41.6962 42.2052C41.6962 41.8006 41.5355 41.4126 41.2494 41.1265C40.9633 40.8404 40.5753 40.6797 40.1707 40.6797Z" fill="#0A102F"/>
<path d="M7.62706 27.4592H25.9331C26.3376 27.4592 26.7257 27.2985 27.0117 27.0124C27.2978 26.7263 27.4586 26.3383 27.4586 25.9337C27.4586 25.5291 27.2978 25.1411 27.0117 24.855C26.7257 24.5689 26.3376 24.4082 25.9331 24.4082H7.62706C7.22247 24.4082 6.83446 24.5689 6.54837 24.855C6.26228 25.1411 6.10156 25.5291 6.10156 25.9337C6.10156 26.3383 6.26228 26.7263 6.54837 27.0124C6.83446 27.2985 7.22247 27.4592 7.62706 27.4592Z" fill="#0A102F"/>
<path d="M6.10156 34.0685C6.10158 34.473 6.26231 34.8611 6.54839 35.1471C6.83447 35.4332 7.22248 35.5939 7.62706 35.594H40.1711C40.5756 35.594 40.9637 35.4332 41.2497 35.1472C41.5358 34.8611 41.6965 34.4731 41.6965 34.0685C41.6965 33.6639 41.5358 33.2759 41.2497 32.9898C40.9637 32.7037 40.5756 32.543 40.1711 32.543H7.62706C7.22248 32.543 6.83448 32.7037 6.54839 32.9898C6.26231 33.2759 6.10158 33.6639 6.10156 34.0685Z" fill="#0A102F"/>
<path d="M60.5093 0H34.0673C33.1236 0.00114382 32.2189 0.376529 31.5516 1.04382C30.8843 1.7111 30.509 2.61581 30.5078 3.5595V23.8995C30.509 24.8432 30.8843 25.7479 31.5516 26.4152C32.2189 27.0825 33.1236 27.4578 34.0673 27.459H46.7242L53.4131 33.1935C53.6348 33.383 53.9061 33.505 54.1949 33.5452C54.4837 33.5854 54.778 33.542 55.0429 33.4202C55.3078 33.2984 55.5323 33.1032 55.6899 32.8578C55.8474 32.6124 55.9313 32.3271 55.9318 32.0355L55.9328 27.459H60.5093C61.453 27.4578 62.3577 27.0825 63.025 26.4152C63.6923 25.7479 64.0677 24.8432 64.0688 23.8995V3.5595C64.0677 2.61581 63.6923 1.7111 63.025 1.04382C62.3577 0.376529 61.453 0.00114382 60.5093 0ZM56.4413 19.323H38.1353C37.7307 19.323 37.3427 19.1623 37.0566 18.8762C36.7705 18.5901 36.6098 18.2021 36.6098 17.7975C36.6098 17.3929 36.7705 17.0049 37.0566 16.7188C37.3427 16.4327 37.7307 16.272 38.1353 16.272H56.4413C56.8459 16.272 57.2339 16.4327 57.52 16.7188C57.8061 17.0049 57.9668 17.3929 57.9668 17.7975C57.9668 18.2021 57.8061 18.5901 57.52 18.8762C57.2339 19.1623 56.8459 19.323 56.4413 19.323ZM56.4413 11.187H38.1353C37.7307 11.187 37.3427 11.0263 37.0566 10.7402C36.7705 10.4541 36.6098 10.0661 36.6098 9.6615C36.6098 9.25691 36.7705 8.86889 37.0566 8.5828C37.3427 8.29672 37.7307 8.136 38.1353 8.136H56.4413C56.8459 8.136 57.2339 8.29672 57.52 8.5828C57.8061 8.86889 57.9668 9.25691 57.9668 9.6615C57.9668 10.0661 57.8061 10.4541 57.52 10.7402C57.2339 11.0263 56.8459 11.187 56.4413 11.187Z" fill="#2E90FA"/>
</svg>
