<svg xmlns="http://www.w3.org/2000/svg" version="1.1" xmlns:xlink="http://www.w3.org/1999/xlink" width="512" height="512" x="0" y="0" viewBox="0 0 64 64" style="enable-background:new 0 0 512 512" xml:space="preserve" fill-rule="evenodd" class=""><g><path fill="#364f6b" d="M27.757 30.586a2 2 0 0 0-2.828 0L12.201 43.314c-2.342 2.341-2.342 6.143 0 8.485s6.144 2.342 8.485 0l12.728-12.728a2 2 0 0 0 0-2.828zm2.829-5.657a2 2 0 0 0 0 2.828l5.657 5.657a2 2 0 0 0 2.828 0l12.728-12.728c2.342-2.341 2.342-6.143 0-8.485s-6.144-2.342-8.485 0L30.586 24.929z" opacity="1" data-original="#364f6b" class=""></path><path fill="#2F90FA" d="M51.799 51.799a6.002 6.002 0 0 0 0-8.485L20.686 12.201c-2.341-2.342-6.143-2.342-8.485 0s-2.342 6.144 0 8.485l31.113 31.113a6.002 6.002 0 0 0 8.485 0z" opacity="1" data-original="##2F90FA" class=""></path></g></svg>