<svg width="60" height="60" viewBox="0 0 60 60" fill="none" xmlns="http://www.w3.org/2000/svg">
<path d="M52.8571 32.3814C52.6695 32.3813 52.4838 32.4183 52.3104 32.4901C52.1371 32.5618 51.9796 32.6671 51.8469 32.7997C51.7143 32.9324 51.609 33.0899 51.5373 33.2632C51.4655 33.4366 51.4285 33.6223 51.4286 33.8099V52.2661L39.581 40.4189C39.3131 40.1511 38.9498 40.0006 38.571 40.0006C38.1921 40.0006 37.8288 40.1511 37.5609 40.4189C37.293 40.6868 37.1425 41.0501 37.1425 41.429C37.1425 41.8078 37.293 42.1712 37.5609 42.439L51.3343 56.2119C51.2333 56.4846 51.0514 56.72 50.8129 56.8864C50.5744 57.0529 50.2908 57.1425 50 57.1433H4.28571C3.9949 57.1425 3.71127 57.0529 3.4728 56.8864C3.23434 56.72 3.05243 56.4846 2.95143 56.2119L16.7239 42.439C16.8565 42.3064 16.9617 42.1489 17.0335 41.9756C17.1053 41.8023 17.1422 41.6166 17.1422 41.429C17.1422 41.2414 17.1053 41.0557 17.0335 40.8824C16.9617 40.7091 16.8565 40.5516 16.7239 40.4189C16.5912 40.2863 16.4338 40.1811 16.2605 40.1093C16.0871 40.0375 15.9014 40.0006 15.7138 40.0006C15.5262 40.0006 15.3405 40.0375 15.1672 40.1093C14.9939 40.1811 14.8364 40.2863 14.7038 40.4189L2.85714 52.266V22.1111L24.0574 44.0969C24.4569 44.5119 24.9361 44.842 25.4662 45.0675C25.9964 45.293 26.5665 45.4092 27.1426 45.4092C27.7187 45.4092 28.2889 45.293 28.819 45.0675C29.3491 44.842 29.8283 44.5119 30.2279 44.0969L38.6472 35.3659C38.7781 35.2311 38.8811 35.0717 38.9503 34.8969C39.0195 34.7221 39.0535 34.5354 39.0504 34.3475C39.0473 34.1595 39.0072 33.9741 38.9322 33.8017C38.8573 33.6293 38.7491 33.4734 38.6137 33.3429C38.4784 33.2125 38.3187 33.11 38.1437 33.0414C37.9687 32.9727 37.7819 32.9393 37.594 32.9431C37.406 32.9468 37.2207 32.9876 37.0486 33.0631C36.8764 33.1386 36.7209 33.2473 36.5909 33.3831L28.171 42.114C27.8973 42.3848 27.5277 42.5367 27.1426 42.5367C26.7575 42.5367 26.388 42.3848 26.1142 42.114L2.94701 18.0888C3.04589 17.8127 3.22747 17.5738 3.46702 17.4046C3.70657 17.2354 3.99244 17.1442 4.28571 17.1433H24.2857C24.6646 17.1433 25.028 16.9928 25.2959 16.7249C25.5638 16.4569 25.7143 16.0936 25.7143 15.7147C25.7143 15.3358 25.5638 14.9725 25.2959 14.7046C25.028 14.4366 24.6646 14.2861 24.2857 14.2861H4.28571C3.15821 14.2878 2.07674 14.7335 1.27549 15.5268C0.474249 16.3201 0.0177187 17.397 0.0047619 18.5245C0.00441904 18.5347 0.00190474 18.5442 0.00174284 18.5545L0 18.5718V55.7148L5.71637e-05 55.7151C0.00137809 56.8512 0.453335 57.9405 1.25677 58.7439C2.06021 59.5473 3.14952 59.9992 4.28571 60.0004H50C51.1363 59.9992 52.2256 59.5473 53.0291 58.7438C53.8326 57.9403 54.2845 56.851 54.2857 55.7147V33.8099C54.2857 33.6223 54.2488 33.4366 54.177 33.2632C54.1052 33.0899 54 32.9324 53.8674 32.7997C53.7347 32.6671 53.5772 32.5618 53.4039 32.4901C53.2305 32.4183 53.0448 32.3813 52.8571 32.3814Z" fill="#0A102F"/>
<path d="M43.9253 12.6465C42.7832 12.6465 41.6016 13.7584 41.6016 15.619C41.6016 17.5112 42.7539 18.7821 43.83 18.7821C45.0059 18.7821 45.9622 17.3512 45.9626 15.5924V15.5907C45.9623 13.8571 45.1244 12.6465 43.9253 12.6465Z" fill="#2E90FA"/>
<path d="M44.2846 0C41.1766 0 38.1384 0.921627 35.5542 2.64833C32.97 4.37504 30.9559 6.82928 29.7665 9.70069C28.5771 12.5721 28.2659 15.7317 28.8723 18.78C29.4786 21.8283 30.9752 24.6283 33.1729 26.826C35.3706 29.0236 38.1706 30.5203 41.2189 31.1266C44.2672 31.733 47.4268 31.4218 50.2982 30.2324C53.1696 29.043 55.6238 27.0289 57.3506 24.4447C59.0773 21.8605 59.9989 18.8223 59.9989 15.7143C59.9942 11.548 58.3371 7.55379 55.3911 4.60781C52.4451 1.66183 48.4508 0.0047087 44.2846 0ZM53.794 18.936C53.4598 19.8516 52.8551 20.6438 52.06 21.2075C51.265 21.7713 50.3173 22.0798 49.3427 22.0922C48.8062 22.0867 48.2792 21.9497 47.808 21.6932C47.3368 21.4367 46.9357 21.0684 46.6399 20.6208C45.8507 21.2758 44.8582 21.6358 43.8326 21.6392C41.0284 21.6392 38.747 18.9384 38.747 15.619C38.747 12.3498 41.0229 9.78936 43.9279 9.78936C46.7641 9.78936 48.8223 12.2294 48.8223 15.5915L48.8221 15.5978L48.8223 15.6004L48.8051 18.4547C48.8033 18.9116 49.1291 19.235 49.3427 19.235C49.7443 19.2188 50.1313 19.0805 50.4522 18.8385C50.7731 18.5965 51.0125 18.2624 51.1385 17.8808L51.1386 17.8804C51.7733 16.5079 51.9188 14.9595 51.5507 13.4929C50.9691 11.6098 49.6732 10.0293 47.9406 9.09002C46.208 8.15073 44.1764 7.92728 42.2811 8.46756C40.3857 9.00784 38.7773 10.2689 37.8004 11.9805C36.8234 13.6922 36.5556 15.7184 37.0543 17.6251C37.4739 19.1994 38.3892 20.5969 39.6647 21.6105C40.9403 22.6242 42.5083 23.2002 44.1367 23.2533C44.5125 23.2629 44.8694 23.4202 45.13 23.6912C45.3905 23.9621 45.5338 24.3249 45.5287 24.7007C45.5236 25.0766 45.3706 25.4353 45.1028 25.6991C44.835 25.963 44.474 26.1106 44.0981 26.11L44.0577 26.1095C41.6032 26.0409 39.2523 25.1058 37.4213 23.4698C35.5903 21.8339 34.3975 19.6026 34.054 17.1714C33.7106 14.7401 34.2387 12.2658 35.5449 10.1867C36.851 8.10751 38.8509 6.55777 41.1903 5.81194C42.5038 5.39334 43.8874 5.24015 45.2606 5.36132C46.6338 5.48248 47.9692 5.87556 49.189 6.51769C50.4089 7.15982 51.4889 8.03816 52.3661 9.1016C53.2433 10.165 53.9002 11.3923 54.2986 12.7121L54.3052 12.7415L54.3112 12.7572C54.8476 14.8156 54.6652 16.9954 53.794 18.936Z" fill="#2E90FA"/>
</svg>
