<svg width="16" height="16" viewBox="0 0 16 16" fill="none" xmlns="http://www.w3.org/2000/svg">
<path d="M8.00025 2.05002C9.93816 2.05002 10.1676 2.05728 10.9332 2.09219C11.3935 2.09782 11.8494 2.18234 12.2811 2.34207C12.5942 2.46281 12.8785 2.64777 13.1158 2.88504C13.3531 3.12232 13.538 3.40664 13.6588 3.71972C13.8185 4.15144 13.903 4.60736 13.9087 5.06765C13.9432 5.8332 13.9508 6.06269 13.9508 8.0006C13.9508 9.9385 13.9436 10.168 13.9087 10.9335C13.903 11.3938 13.8185 11.8498 13.6588 12.2815C13.538 12.5946 13.3531 12.8789 13.1158 13.1161C12.8785 13.3534 12.5942 13.5384 12.2811 13.6591C11.8494 13.8189 11.3935 13.9034 10.9332 13.909C10.168 13.9436 9.9385 13.9512 8.00025 13.9512C6.062 13.9512 5.83251 13.9439 5.0673 13.909C4.60701 13.9034 4.1511 13.8189 3.71938 13.6591C3.4063 13.5384 3.12197 13.3534 2.8847 13.1161C2.64743 12.8789 2.46247 12.5946 2.34173 12.2815C2.18199 11.8498 2.09747 11.3938 2.09184 10.9335C2.05728 10.168 2.04968 9.9385 2.04968 8.0006C2.04968 6.06269 2.05693 5.8332 2.09184 5.06765C2.09747 4.60736 2.18199 4.15144 2.34173 3.71972C2.46247 3.40664 2.64743 3.12232 2.8847 2.88504C3.12197 2.64777 3.4063 2.46281 3.71938 2.34207C4.1511 2.18234 4.60701 2.09782 5.0673 2.09219C5.83286 2.05763 6.06235 2.05002 8.00025 2.05002ZM8.00025 0.742188C6.03021 0.742188 5.78205 0.750482 5.00786 0.785736C4.40545 0.797718 3.80944 0.911778 3.24518 1.12306C2.76114 1.30544 2.32271 1.59123 1.96051 1.96051C1.5909 2.32285 1.30486 2.76152 1.12237 3.24587C0.911086 3.81014 0.797027 4.40614 0.785045 5.00855C0.750482 5.78205 0.742188 6.03021 0.742188 8.00025C0.742188 9.9703 0.750482 10.2185 0.785736 10.9926C0.797718 11.5951 0.911778 12.1911 1.12306 12.7553C1.30535 13.2396 1.59115 13.6783 1.96051 14.0407C2.32292 14.41 2.76158 14.6958 3.24587 14.8781C3.81014 15.0894 4.40614 15.2035 5.00855 15.2155C5.78274 15.25 6.02986 15.259 8.00094 15.259C9.97203 15.259 10.2191 15.2507 10.9933 15.2155C11.5957 15.2035 12.1918 15.0894 12.756 14.8781C13.238 14.6913 13.6757 14.4059 14.0411 14.0403C14.4065 13.6746 14.6916 13.2367 14.8781 12.7546C15.0894 12.1904 15.2035 11.5944 15.2155 10.992C15.25 10.2185 15.2583 9.9703 15.2583 8.00025C15.2583 6.03021 15.25 5.78205 15.2148 5.00786C15.2028 4.40545 15.0887 3.80944 14.8774 3.24518C14.6952 2.76089 14.4094 2.32222 14.04 1.95981C13.6776 1.59046 13.2389 1.30466 12.7546 1.12237C12.1904 0.911086 11.5944 0.797027 10.992 0.785045C10.2185 0.750482 9.9703 0.742188 8.00025 0.742188Z" fill="white"/>
<path d="M8.00063 4.27441C7.26346 4.27441 6.54285 4.49301 5.92991 4.90256C5.31698 5.31211 4.83926 5.89421 4.55715 6.57527C4.27505 7.25632 4.20124 8.00574 4.34506 8.72874C4.48887 9.45174 4.84385 10.1159 5.36511 10.6371C5.88636 11.1584 6.55049 11.5134 7.27349 11.6572C7.99649 11.801 8.74591 11.7272 9.42696 11.4451C10.108 11.163 10.6901 10.6853 11.0997 10.0723C11.5092 9.45938 11.7278 8.73877 11.7278 8.0016C11.7278 7.01309 11.3351 6.06507 10.6361 5.36608C9.93716 4.6671 8.98914 4.27441 8.00063 4.27441ZM8.00063 10.421C7.52213 10.421 7.05437 10.2791 6.65651 10.0132C6.25865 9.74738 5.94855 9.36953 5.76544 8.92745C5.58232 8.48537 5.53441 7.99892 5.62776 7.52961C5.72111 7.0603 5.95153 6.62921 6.28989 6.29086C6.62824 5.95251 7.05933 5.72209 7.52864 5.62874C7.99794 5.53538 8.4844 5.5833 8.92648 5.76641C9.36855 5.94953 9.74641 6.25962 10.0122 6.65748C10.2781 7.05534 10.42 7.5231 10.42 8.0016C10.42 8.64326 10.1651 9.25863 9.71137 9.71234C9.25765 10.1661 8.64228 10.421 8.00063 10.421Z" fill="white"/>
<path d="M11.871 4.99779C12.352 4.99779 12.7419 4.60785 12.7419 4.12683C12.7419 3.6458 12.352 3.25586 11.871 3.25586C11.3899 3.25586 11 3.6458 11 4.12683C11 4.60785 11.3899 4.99779 11.871 4.99779Z" fill="white"/>
</svg>
